WIPSHDC Old Traditional Sans-Heavy.ufo
<glyph name="uni4E3D" format="2">
	<advance width="1000"/>
	<unicode hex="4E3D"/>
	<outline>
		<contour>
			<point x="456" y="596" type="line"/>
			<point x="71" y="596" type="line"/>
			<point x="71" y="-91" type="line"/>
			<point x="201" y="-91" type="line"/>
			<point x="201" y="464" type="line"/>
			<point x="456" y="464" type="line"/>
		</contour>
		<contour>
			<point x="478" y="801" type="line"/>
			<point x="57" y="801" type="line"/>
			<point x="57" y="669" type="line"/>
			<point x="478" y="669" type="line"/>
		</contour>
		<contour>
			<point x="913" y="596" type="line"/>
			<point x="525" y="596" type="line"/>
			<point x="525" y="-91" type="line"/>
			<point x="655" y="-91" type="line"/>
			<point x="655" y="464" type="line"/>
			<point x="913" y="464" type="line"/>
		</contour>
		<contour>
			<point x="947" y="801" type="line"/>
			<point x="519" y="801" type="line"/>
			<point x="519" y="669" type="line"/>
			<point x="947" y="669" type="line"/>
		</contour>
		<contour>
			<point x="324" y="399" type="line"/>
			<point x="219" y="399" type="line"/>
			<point x="219" y="108" type="line"/>
			<point x="324" y="108" type="line"/>
		</contour>
		<contour>
			<point x="779" y="399" type="line"/>
			<point x="673" y="399" type="line"/>
			<point x="673" y="108" type="line"/>
			<point x="779" y="108" type="line"/>
		</contour>
		<contour>
			<point x="475" y="56" type="curve" smooth="yes"/>
			<point x="475" y="596" type="line"/>
			<point x="341" y="596" type="line"/>
			<point x="341" y="59" type="line" smooth="yes"/>
			<point x="341" y="47"/>
			<point x="332" y="44"/>
			<point x="321" y="44" type="curve" smooth="yes"/>
			<point x="310" y="43"/>
			<point x="280" y="43"/>
			<point x="253" y="45" type="curve"/>
			<point x="271" y="7"/>
			<point x="287" y="-55"/>
			<point x="290" y="-95" type="curve"/>
			<point x="343" y="-95"/>
			<point x="390" y="-92"/>
			<point x="428" y="-69" type="curve" smooth="yes"/>
			<point x="466" y="-46"/>
			<point x="475" y="-7"/>
		</contour>
		<contour>
			<point x="932" y="61" type="curve" smooth="yes"/>
			<point x="932" y="596" type="line"/>
			<point x="796" y="596" type="line"/>
			<point x="796" y="63" type="line" smooth="yes"/>
			<point x="796" y="52"/>
			<point x="787" y="48"/>
			<point x="775" y="48" type="curve" smooth="yes"/>
			<point x="763" y="48"/>
			<point x="730" y="47"/>
			<point x="701" y="49" type="curve"/>
			<point x="718" y="12"/>
			<point x="733" y="-48"/>
			<point x="737" y="-88" type="curve"/>
			<point x="794" y="-88"/>
			<point x="844" y="-86"/>
			<point x="883" y="-64" type="curve" smooth="yes"/>
			<point x="922" y="-41"/>
			<point x="932" y="-4"/>
		</contour>
	</outline>
</glyph>
<glyph name="uni4E49" format="2">
	<advance width="1000" height="1000"/>
	<unicode hex="4E49"/>
	<note>
		cid09580
	</note>
	<outline>
		<contour>
			<point x="294" y="757" type="curve"/>
			<point x="145" y="718" type="line"/>
			<point x="268" y="280"/>
			<point x="510" y="12"/>
			<point x="873" y="-93" type="curve"/>
			<point x="895" y="-54"/>
			<point x="942" y="13"/>
			<point x="976" y="43" type="curve"/>
			<point x="622" y="143"/>
			<point x="396" y="379"/>
		</contour>
		<contour>
			<point x="887" y="743" type="curve"/>
			<point x="732" y="778" type="line"/>
			<point x="646" y="372"/>
			<point x="414" y="126"/>
			<point x="33" y="36" type="curve"/>
			<point x="64" y="3"/>
			<point x="115" y="-64"/>
			<point x="133" y="-99" type="curve"/>
			<point x="535" y="18"/>
			<point x="784" y="297"/>
		</contour>
		<contour>
			<point x="490" y="855" type="curve"/>
			<point x="378" y="784" type="line"/>
			<point x="427" y="726"/>
			<point x="487" y="647"/>
			<point x="511" y="596" type="curve"/>
			<point x="631" y="675" type="line"/>
			<point x="603" y="727"/>
			<point x="540" y="801"/>
		</contour>
	</outline>
</glyph>
<glyph name="uni5482" format="2">
	<advance width="1000" height="1000"/>
	<unicode hex="5482"/>
	<note>
		cid12131
	</note>
	<outline>
		<contour>
			<point x="789" y="663" type="line"/>
			<point x="668" y="663" type="line"/>
			<point x="668" y="77" type="line"/>
			<point x="789" y="77" type="line"/>
		</contour>
		<contour>
			<point x="940" y="289" type="curve" smooth="yes"/>
			<point x="940" y="584" type="line"/>
			<point x="821" y="584" type="line"/>
			<point x="821" y="292" type="line" smooth="yes"/>
			<point x="821" y="284"/>
			<point x="819" y="282"/>
			<point x="813" y="282" type="curve" smooth="yes"/>
			<point x="808" y="282"/>
			<point x="795" y="282"/>
			<point x="783" y="283" type="curve"/>
			<point x="799" y="252"/>
			<point x="814" y="204"/>
			<point x="817" y="171" type="curve"/>
			<point x="854" y="171"/>
			<point x="882" y="173"/>
			<point x="908" y="193" type="curve" smooth="yes"/>
			<point x="935" y="212"/>
			<point x="940" y="244"/>
		</contour>
		<contour>
			<point x="868" y="584" type="line"/>
			<point x="527" y="584" type="line"/>
			<point x="527" y="170" type="line"/>
			<point x="636" y="170" type="line"/>
			<point x="636" y="461" type="line"/>
			<point x="868" y="461" type="line"/>
		</contour>
		<contour>
			<point x="967" y="814" type="line"/>
			<point x="364" y="814" type="line"/>
			<point x="364" y="-96" type="line"/>
			<point x="495" y="-96" type="line"/>
			<point x="495" y="683" type="line"/>
			<point x="967" y="683" type="line"/>
		</contour>
		<contour>
			<point x="970" y="57" type="line"/>
			<point x="420" y="57" type="line"/>
			<point x="420" y="-74" type="line"/>
			<point x="970" y="-74" type="line"/>
		</contour>
		<contour>
			<point x="332" y="756" type="line"/>
			<point x="104" y="756" type="line"/>
			<point x="104" y="627" type="line"/>
			<point x="208" y="627" type="line"/>
			<point x="208" y="307" type="line"/>
			<point x="104" y="307" type="line"/>
			<point x="104" y="178" type="line"/>
			<point x="332" y="178" type="line"/>
		</contour>
		<contour>
			<point x="176" y="756" type="line"/>
			<point x="56" y="756" type="line"/>
			<point x="56" y="99" type="line"/>
			<point x="176" y="99" type="line"/>
		</contour>
	</outline>
</glyph>
<glyph name="uni54A3" format="2">
	<advance width="1000" height="1000"/>
	<unicode hex="54A3"/>
	<note>
		cid12175
	</note>
	<outline>
		<contour>
			<point x="340" y="717" type="line"/>
			<point x="116" y="717" type="line"/>
			<point x="116" y="588" type="line"/>
			<point x="220" y="588" type="line"/>
			<point x="220" y="268" type="line"/>
			<point x="116" y="268" type="line"/>
			<point x="116" y="139" type="line"/>
			<point x="340" y="139" type="line"/>
		</contour>
		<contour>
			<point x="176" y="717" type="line"/>
			<point x="60" y="717" type="line"/>
			<point x="60" y="55" type="line"/>
			<point x="176" y="55" type="line"/>
		</contour>
		<contour>
			<point x="703" y="856" type="line"/>
			<point x="571" y="856" type="line"/>
			<point x="571" y="424" type="line"/>
			<point x="703" y="424" type="line"/>
		</contour>
		<contour>
			<point x="960" y="491" type="line"/>
			<point x="361" y="491" type="line"/>
			<point x="361" y="357" type="line"/>
			<point x="960" y="357" type="line"/>
		</contour>
		<contour>
			<point x="486" y="786" type="curve"/>
			<point x="362" y="752" type="line"/>
			<point x="387" y="678"/>
			<point x="407" y="580"/>
			<point x="409" y="516" type="curve"/>
			<point x="541" y="553" type="line"/>
			<point x="536" y="617"/>
			<point x="514" y="712"/>
		</contour>
		<contour>
			<point x="930" y="753" type="curve"/>
			<point x="788" y="783" type="line"/>
			<point x="779" y="710"/>
			<point x="757" y="610"/>
			<point x="737" y="545" type="curve"/>
			<point x="851" y="515" type="line"/>
			<point x="875" y="575"/>
			<point x="904" y="668"/>
		</contour>
		<contour>
			<point x="788" y="95" type="curve" smooth="yes"/>
			<point x="788" y="424" type="line"/>
			<point x="657" y="424" type="line"/>
			<point x="657" y="94" type="line" smooth="yes"/>
			<point x="657" y="-26"/>
			<point x="680" y="-66"/>
			<point x="781" y="-66" type="curve" smooth="yes"/>
			<point x="804" y="-66"/>
			<point x="827" y="-66"/>
			<point x="850" y="-66" type="curve" smooth="yes"/>
			<point x="933" y="-66"/>
			<point x="965" y="-18"/>
			<point x="976" y="144" type="curve"/>
			<point x="941" y="153"/>
			<point x="886" y="175"/>
			<point x="860" y="197" type="curve"/>
			<point x="857" y="76"/>
			<point x="853" y="55"/>
			<point x="836" y="55" type="curve" smooth="yes"/>
			<point x="826" y="55"/>
			<point x="815" y="55"/>
			<point x="805" y="55" type="curve" smooth="yes"/>
			<point x="790" y="55"/>
			<point x="788" y="59"/>
		</contour>
		<contour>
			<point x="582" y="293" type="curve" smooth="yes"/>
			<point x="582" y="424" type="line"/>
			<point x="451" y="424" type="line"/>
			<point x="451" y="296" type="line" smooth="yes"/>
			<point x="451" y="197"/>
			<point x="428" y="82"/>
			<point x="252" y="10" type="curve"/>
			<point x="280" y="-13"/>
			<point x="321" y="-64"/>
			<point x="338" y="-95" type="curve"/>
			<point x="552" y="-2"/>
			<point x="582" y="156"/>
		</contour>
	</outline>
</glyph>
<glyph name="uni552C" format="2">
	<advance width="1000" height="1000"/>
	<unicode hex="552C"/>
	<note>
		cid12373
	</note>
	<outline>
		<contour>
			<point x="720" y="855" type="line"/>
			<point x="586" y="855" type="line"/>
			<point x="586" y="594" type="line"/>
			<point x="720" y="594" type="line"/>
		</contour>
		<contour>
			<point x="927" y="797" type="line"/>
			<point x="639" y="797" type="line"/>
			<point x="639" y="696" type="line"/>
			<point x="927" y="696" type="line"/>
		</contour>
		<contour>
			<point x="871" y="658" type="line"/>
			<point x="439" y="658" type="line"/>
			<point x="439" y="546" type="line"/>
			<point x="871" y="546" type="line"/>
		</contour>
		<contour>
			<point x="860" y="658" type="line"/>
			<point x="842" y="658" type="line"/>
			<point x="842" y="644" type="line" smooth="yes"/>
			<point x="842" y="591"/>
			<point x="830" y="525"/>
			<point x="824" y="483" type="curve"/>
			<point x="934" y="458" type="line"/>
			<point x="947" y="506"/>
			<point x="962" y="579"/>
			<point x="973" y="643" type="curve"/>
			<point x="879" y="662" type="line"/>
		</contour>
		<contour>
			<point x="717" y="412" type="curve" smooth="yes"/>
			<point x="717" y="564" type="line"/>
			<point x="595" y="564" type="line"/>
			<point x="595" y="411" type="line" smooth="yes"/>
			<point x="595" y="316"/>
			<point x="621" y="286"/>
			<point x="732" y="286" type="curve" smooth="yes"/>
			<point x="753" y="286"/>
			<point x="819" y="286"/>
			<point x="842" y="286" type="curve" smooth="yes"/>
			<point x="919" y="286"/>
			<point x="951" y="311"/>
			<point x="963" y="399" type="curve"/>
			<point x="931" y="405"/>
			<point x="883" y="421"/>
			<point x="860" y="437" type="curve"/>
			<point x="856" y="391"/>
			<point x="851" y="382"/>
			<point x="828" y="382" type="curve" smooth="yes"/>
			<point x="813" y="382"/>
			<point x="762" y="382"/>
			<point x="750" y="382" type="curve" smooth="yes"/>
			<point x="722" y="382"/>
			<point x="717" y="385"/>
		</contour>
		<contour>
			<point x="511" y="328" type="curve" smooth="yes"/>
			<point x="511" y="658" type="line"/>
			<point x="383" y="658" type="line"/>
			<point x="383" y="329" type="line" smooth="yes"/>
			<point x="383" y="218"/>
			<point x="378" y="83"/>
			<point x="310" y="-9" type="curve"/>
			<point x="338" y="-24"/>
			<point x="392" y="-70"/>
			<point x="413" y="-94" type="curve"/>
			<point x="497" y="13"/>
			<point x="511" y="195"/>
		</contour>
		<contour>
			<point x="678" y="261" type="curve"/>
			<point x="553" y="261" type="line"/>
			<point x="553" y="116"/>
			<point x="553" y="48"/>
			<point x="468" y="7" type="curve"/>
			<point x="494" y="-16"/>
			<point x="527" y="-65"/>
			<point x="537" y="-95" type="curve"/>
			<point x="665" y="-38"/>
			<point x="678" y="73"/>
		</contour>
		<contour>
			<point x="848" y="58" type="curve" smooth="yes"/>
			<point x="848" y="261" type="line"/>
			<point x="726" y="261" type="line"/>
			<point x="726" y="57" type="line" smooth="yes"/>
			<point x="726" y="-43"/>
			<point x="744" y="-78"/>
			<point x="830" y="-78" type="curve" smooth="yes"/>
			<point x="846" y="-78"/>
			<point x="857" y="-78"/>
			<point x="874" y="-78" type="curve" smooth="yes"/>
			<point x="940" y="-78"/>
			<point x="968" y="-43"/>
			<point x="978" y="81" type="curve"/>
			<point x="946" y="89"/>
			<point x="897" y="108"/>
			<point x="874" y="126" type="curve"/>
			<point x="872" y="42"/>
			<point x="869" y="27"/>
			<point x="860" y="27" type="curve" smooth="yes"/>
			<point x="858" y="27"/>
			<point x="856" y="27"/>
			<point x="854" y="27" type="curve" smooth="yes"/>
			<point x="849" y="27"/>
			<point x="848" y="30"/>
		</contour>
		<contour>
			<point x="353" y="733" type="line"/>
			<point x="134" y="733" type="line"/>
			<point x="134" y="610" type="line"/>
			<point x="225" y="610" type="line"/>
			<point x="225" y="283" type="line"/>
			<point x="134" y="283" type="line"/>
			<point x="134" y="160" type="line"/>
			<point x="353" y="160" type="line"/>
		</contour>
		<contour>
			<point x="184" y="733" type="line"/>
			<point x="59" y="733" type="line"/>
			<point x="59" y="80" type="line"/>
			<point x="184" y="80" type="line"/>
		</contour>
		<contour>
			<point x="820" y="516" type="line"/>
			<point x="521" y="469" type="line"/>
			<point x="535" y="367" type="line"/>
			<point x="835" y="418" type="line"/>
		</contour>
	</outline>
</glyph>
<glyph name="uni55EF" format="2">
	<advance width="1000" height="1000"/>
	<unicode hex="55EF"/>
	<note>
		cid12711
	</note>
	<outline>
		<contour>
			<point x="326" y="738" type="line"/>
			<point x="125" y="738" type="line"/>
			<point x="125" y="605" type="line"/>
			<point x="211" y="605" type="line"/>
			<point x="211" y="298" type="line"/>
			<point x="125" y="298" type="line"/>
			<point x="125" y="165" type="line"/>
			<point x="326" y="165" type="line"/>
		</contour>
		<contour>
			<point x="171" y="738" type="line"/>
			<point x="56" y="738" type="line"/>
			<point x="56" y="80" type="line"/>
			<point x="171" y="80" type="line"/>
		</contour>
		<contour>
			<point x="471" y="404" type="line"/>
			<point x="471" y="713" type="line"/>
			<point x="807" y="713" type="line"/>
			<point x="807" y="404" type="line"/>
		</contour>
		<contour>
			<point x="934" y="827" type="line"/>
			<point x="353" y="827" type="line"/>
			<point x="353" y="289" type="line"/>
			<point x="934" y="289" type="line"/>
		</contour>
		<contour>
			<point x="682" y="579" type="curve"/>
			<point x="610" y="508" type="line"/>
			<point x="654" y="476"/>
			<point x="718" y="429"/>
			<point x="748" y="401" type="curve"/>
			<point x="823" y="480" type="line"/>
			<point x="790" y="507"/>
			<point x="726" y="550"/>
		</contour>
		<contour>
			<point x="799" y="662" type="line"/>
			<point x="479" y="662" type="line"/>
			<point x="479" y="559" type="line"/>
			<point x="799" y="559" type="line"/>
		</contour>
		<contour>
			<point x="706" y="705" type="curve"/>
			<point x="587" y="705" type="line"/>
			<point x="585" y="584"/>
			<point x="576" y="525"/>
			<point x="464" y="493" type="curve"/>
			<point x="486" y="472"/>
			<point x="514" y="430"/>
			<point x="524" y="403" type="curve"/>
			<point x="679" y="448"/>
			<point x="703" y="542"/>
		</contour>
		<contour>
			<point x="601" y="70" type="curve" smooth="yes"/>
			<point x="601" y="211" type="line"/>
			<point x="472" y="211" type="line"/>
			<point x="472" y="69" type="line" smooth="yes"/>
			<point x="472" y="-48"/>
			<point x="496" y="-88"/>
			<point x="608" y="-88" type="curve" smooth="yes"/>
			<point x="630" y="-88"/>
			<point x="673" y="-88"/>
			<point x="696" y="-88" type="curve" smooth="yes"/>
			<point x="778" y="-88"/>
			<point x="813" y="-55"/>
			<point x="828" y="83" type="curve"/>
			<point x="785" y="93"/>
			<point x="740" y="113"/>
			<point x="712" y="135" type="curve"/>
			<point x="708" y="49"/>
			<point x="704" y="39"/>
			<point x="681" y="39" type="curve" smooth="yes"/>
			<point x="669" y="39"/>
			<point x="639" y="39"/>
			<point x="629" y="39" type="curve" smooth="yes"/>
			<point x="605" y="39"/>
			<point x="601" y="42"/>
		</contour>
		<contour>
			<point x="469" y="165" type="curve"/>
			<point x="353" y="207" type="line"/>
			<point x="341" y="132"/>
			<point x="307" y="52"/>
			<point x="267" y="1" type="curve"/>
			<point x="381" y="-66" type="line"/>
			<point x="420" y="-13"/>
			<point x="454" y="76"/>
		</contour>
		<contour>
			<point x="602" y="332" type="curve"/>
			<point x="513" y="255" type="line"/>
			<point x="568" y="218"/>
			<point x="634" y="163"/>
			<point x="662" y="124" type="curve"/>
			<point x="757" y="209" type="line"/>
			<point x="725" y="248"/>
			<point x="657" y="299"/>
		</contour>
		<contour>
			<point x="863" y="226" type="curve"/>
			<point x="747" y="171" type="line"/>
			<point x="804" y="95"/>
			<point x="849" y="5"/>
			<point x="865" y="-63" type="curve"/>
			<point x="992" y="-2" type="line"/>
			<point x="973" y="65"/>
			<point x="924" y="153"/>
		</contour>
	</outline>
</glyph>
<glyph name="uni58C6" format="2">
	<advance width="1000" height="1000"/>
	<unicode hex="58C6"/>
	<note>
		cid13903
	</note>
	<outline>
		<contour>
			<point x="945" y="49" type="line"/>
			<point x="62" y="49" type="line"/>
			<point x="62" y="-76" type="line"/>
			<point x="945" y="-76" type="line"/>
		</contour>
		<contour>
			<point x="846" y="241" type="line"/>
			<point x="152" y="241" type="line"/>
			<point x="152" y="120" type="line"/>
			<point x="846" y="120" type="line"/>
		</contour>
		<contour>
			<point x="571" y="346" type="line"/>
			<point x="424" y="346" type="line"/>
			<point x="424" y="-47" type="line"/>
			<point x="571" y="-47" type="line"/>
		</contour>
		<contour>
			<point x="947" y="484" type="line"/>
			<point x="56" y="484" type="line"/>
			<point x="56" y="265" type="line"/>
			<point x="193" y="265" type="line"/>
			<point x="193" y="369" type="line"/>
			<point x="803" y="369" type="line"/>
			<point x="803" y="265" type="line"/>
			<point x="947" y="265" type="line"/>
		</contour>
		<contour>
			<point x="279" y="779" type="curve"/>
			<point x="113" y="810" type="line"/>
			<point x="133" y="451" type="line"/>
			<point x="267" y="451" type="line"/>
			<point x="250" y="761" type="line"/>
			<point x="268" y="764"/>
			<point x="277" y="770"/>
		</contour>
		<contour>
			<point x="896" y="825" type="curve"/>
			<point x="758" y="825" type="line"/>
			<point x="754" y="700"/>
			<point x="743" y="546"/>
			<point x="729" y="445" type="curve"/>
			<point x="869" y="445" type="line"/>
			<point x="880" y="543"/>
			<point x="890" y="697"/>
		</contour>
		<contour>
			<point x="811" y="825" type="line"/>
			<point x="630" y="825" type="line"/>
			<point x="630" y="737" type="line"/>
			<point x="811" y="737" type="line"/>
		</contour>
		<contour>
			<point x="384" y="775" type="curve"/>
			<point x="319" y="852" type="line"/>
			<point x="273" y="830"/>
			<point x="196" y="798"/>
			<point x="145" y="785" type="curve"/>
			<point x="200" y="712" type="line"/>
			<point x="253" y="725"/>
			<point x="328" y="748"/>
		</contour>
		<contour>
			<point x="377" y="714" type="line"/>
			<point x="187" y="714" type="line"/>
			<point x="187" y="627" type="line"/>
			<point x="377" y="627" type="line"/>
		</contour>
		<contour>
			<point x="378" y="602" type="line"/>
			<point x="188" y="602" type="line"/>
			<point x="188" y="515" type="line"/>
			<point x="378" y="515" type="line"/>
		</contour>
		<contour>
			<point x="797" y="714" type="line"/>
			<point x="634" y="714" type="line"/>
			<point x="634" y="627" type="line"/>
			<point x="797" y="627" type="line"/>
		</contour>
		<contour>
			<point x="795" y="602" type="line"/>
			<point x="632" y="602" type="line"/>
			<point x="632" y="515" type="line"/>
			<point x="795" y="515" type="line"/>
		</contour>
		<contour>
			<point x="618" y="822" type="curve"/>
			<point x="527" y="849" type="line"/>
			<point x="491" y="802"/>
			<point x="425" y="759"/>
			<point x="356" y="731" type="curve"/>
			<point x="378" y="716"/>
			<point x="414" y="685"/>
			<point x="430" y="668" type="curve"/>
			<point x="498" y="703"/>
			<point x="574" y="760"/>
		</contour>
		<contour>
			<point x="443" y="844" type="curve"/>
			<point x="379" y="791" type="line"/>
			<point x="438" y="759"/>
			<point x="512" y="710"/>
			<point x="547" y="676" type="curve"/>
			<point x="615" y="735" type="line"/>
			<point x="577" y="769"/>
			<point x="502" y="816"/>
		</contour>
		<contour>
			<point x="621" y="651" type="curve"/>
			<point x="529" y="678" type="line"/>
			<point x="492" y="627"/>
			<point x="424" y="582"/>
			<point x="353" y="551" type="curve"/>
			<point x="375" y="537"/>
			<point x="411" y="505"/>
			<point x="428" y="488" type="curve"/>
			<point x="498" y="525"/>
			<point x="576" y="585"/>
		</contour>
		<contour>
			<point x="444" y="672" type="curve"/>
			<point x="379" y="618" type="line"/>
			<point x="441" y="585"/>
			<point x="518" y="534"/>
			<point x="554" y="498" type="curve"/>
			<point x="624" y="558" type="line"/>
			<point x="584" y="594"/>
			<point x="505" y="642"/>
		</contour>
	</outline>
</glyph>
<glyph name="uni5BF3" format="2">
	<advance width="1000" height="1000"/>
	<unicode hex="5BF3"/>
	<note>
		cid15686
	</note>
	<outline>
		<contour>
			<point x="573" y="856" type="line"/>
			<point x="427" y="856" type="line"/>
			<point x="427" y="712" type="line"/>
			<point x="573" y="712" type="line"/>
		</contour>
		<contour>
			<point x="936" y="800" type="line"/>
			<point x="63" y="800" type="line"/>
			<point x="63" y="624" type="line"/>
			<point x="193" y="624" type="line"/>
			<point x="193" y="689" type="line"/>
			<point x="799" y="689" type="line"/>
			<point x="799" y="624" type="line"/>
			<point x="936" y="624" type="line"/>
		</contour>
		<contour>
			<point x="454" y="668" type="line"/>
			<point x="138" y="668" type="line"/>
			<point x="138" y="593" type="line"/>
			<point x="454" y="593" type="line"/>
		</contour>
		<contour>
			<point x="447" y="572" type="line"/>
			<point x="145" y="572" type="line"/>
			<point x="145" y="507" type="line"/>
			<point x="447" y="507" type="line"/>
		</contour>
		<contour>
			<point x="84" y="475" type="curve"/>
			<point x="92" y="386" type="line"/>
			<point x="193" y="393"/>
			<point x="327" y="402"/>
			<point x="458" y="413" type="curve"/>
			<point x="458" y="494" type="line"/>
			<point x="320" y="486"/>
			<point x="179" y="479"/>
		</contour>
		<contour>
			<point x="355" y="636" type="line"/>
			<point x="239" y="636" type="line"/>
			<point x="239" y="441" type="line"/>
			<point x="355" y="450" type="line"/>
		</contour>
		<contour>
			<point x="658" y="673" type="curve"/>
			<point x="556" y="691" type="line"/>
			<point x="534" y="650"/>
			<point x="494" y="607"/>
			<point x="436" y="574" type="curve"/>
			<point x="460" y="561"/>
			<point x="495" y="531"/>
			<point x="513" y="509" type="curve"/>
			<point x="580" y="556"/>
			<point x="624" y="609"/>
		</contour>
		<contour>
			<point x="753" y="491" type="curve" smooth="yes"/>
			<point x="753" y="612" type="line"/>
			<point x="643" y="612" type="line"/>
			<point x="643" y="495" type="line" smooth="yes"/>
			<point x="643" y="486"/>
			<point x="640" y="484"/>
			<point x="630" y="484" type="curve" smooth="yes"/>
			<point x="621" y="483"/>
			<point x="589" y="483"/>
			<point x="564" y="485" type="curve"/>
			<point x="576" y="459"/>
			<point x="589" y="423"/>
			<point x="594" y="394" type="curve"/>
			<point x="646" y="394"/>
			<point x="686" y="394"/>
			<point x="715" y="407" type="curve" smooth="yes"/>
			<point x="746" y="421"/>
			<point x="753" y="444"/>
		</contour>
		<contour>
			<point x="630" y="527" type="curve"/>
			<point x="536" y="549" type="line"/>
			<point x="517" y="512"/>
			<point x="481" y="479"/>
			<point x="436" y="455" type="curve"/>
			<point x="458" y="442"/>
			<point x="496" y="412"/>
			<point x="512" y="396" type="curve"/>
			<point x="560" y="426"/>
			<point x="605" y="475"/>
		</contour>
		<contour>
			<point x="839" y="555" type="curve"/>
			<point x="756" y="508" type="line"/>
			<point x="793" y="477"/>
			<point x="837" y="432"/>
			<point x="858" y="402" type="curve"/>
			<point x="945" y="454" type="line"/>
			<point x="923" y="485"/>
			<point x="876" y="526"/>
		</contour>
		<contour>
			<point x="312" y="204" type="line"/>
			<point x="312" y="227" type="line"/>
			<point x="695" y="227" type="line"/>
			<point x="695" y="204" type="line"/>
		</contour>
		<contour>
			<point x="312" y="113" type="line"/>
			<point x="312" y="137" type="line"/>
			<point x="695" y="137" type="line"/>
			<point x="695" y="113" type="line"/>
		</contour>
		<contour>
			<point x="312" y="294" type="line"/>
			<point x="312" y="316" type="line"/>
			<point x="695" y="316" type="line"/>
			<point x="695" y="294" type="line"/>
		</contour>
		<contour>
			<point x="843" y="387" type="line"/>
			<point x="172" y="387" type="line"/>
			<point x="172" y="43" type="line"/>
			<point x="843" y="43" type="line"/>
		</contour>
		<contour>
			<point x="623" y="79" type="curve"/>
			<point x="529" y="2" type="line"/>
			<point x="639" y="-29"/>
			<point x="752" y="-69"/>
			<point x="816" y="-95" type="curve"/>
			<point x="941" y="-16" type="line"/>
			<point x="864" y="10"/>
			<point x="733" y="49"/>
		</contour>
		<contour>
			<point x="475" y="4" type="curve"/>
			<point x="365" y="81" type="line"/>
			<point x="300" y="48"/>
			<point x="162" y="13"/>
			<point x="46" y="-1" type="curve"/>
			<point x="74" y="-25"/>
			<point x="113" y="-68"/>
			<point x="133" y="-94" type="curve"/>
			<point x="250" y="-78"/>
			<point x="391" y="-40"/>
		</contour>
		<contour>
			<point x="826" y="652" type="line"/>
			<point x="587" y="652" type="line"/>
			<point x="536" y="572" type="line"/>
			<point x="826" y="572" type="line"/>
		</contour>
		<contour>
			<point x="830" y="652" type="line"/>
			<point x="813" y="652" type="line"/>
			<point x="813" y="635" type="line"/>
			<point x="802" y="611"/>
			<point x="784" y="580"/>
			<point x="766" y="556" type="curve"/>
			<point x="854" y="521" type="line"/>
			<point x="877" y="549"/>
			<point x="905" y="592"/>
			<point x="926" y="632" type="curve"/>
			<point x="847" y="657" type="line"/>
		</contour>
	</outline>
</glyph>
<glyph name="uni6073" format="2">
	<advance width="1000" height="1000"/>
	<unicode hex="6073"/>
	<note>
		cid17762
	</note>
	<outline>
		<contour>
			<point x="560" y="534" type="curve"/>
			<point x="447" y="500" type="line"/>
			<point x="534" y="344"/>
			<point x="692" y="240"/>
			<point x="887" y="210" type="curve"/>
			<point x="905" y="245"/>
			<point x="941" y="300"/>
			<point x="970" y="327" type="curve"/>
			<point x="775" y="348"/>
			<point x="628" y="422"/>
		</contour>
		<contour>
			<point x="929" y="466" type="curve"/>
			<point x="828" y="553" type="line"/>
			<point x="769" y="503"/>
			<point x="683" y="447"/>
			<point x="606" y="407" type="curve"/>
			<point x="679" y="339" type="line"/>
			<point x="752" y="369"/>
			<point x="848" y="418"/>
		</contour>
		<contour>
			<point x="818" y="831" type="line"/>
			<point x="214" y="831" type="line"/>
			<point x="214" y="729" type="line"/>
			<point x="680" y="729" type="line"/>
			<point x="680" y="577" type="line"/>
			<point x="214" y="577" type="line"/>
			<point x="214" y="475" type="line"/>
			<point x="818" y="475" type="line"/>
		</contour>
		<contour>
			<point x="780" y="698" type="line"/>
			<point x="214" y="698" type="line"/>
			<point x="214" y="608" type="line"/>
			<point x="780" y="608" type="line"/>
		</contour>
		<contour>
			<point x="309" y="831" type="line"/>
			<point x="172" y="831" type="line"/>
			<point x="172" y="321" type="line"/>
			<point x="309" y="321" type="line"/>
		</contour>
		<contour>
			<point x="74" y="355" type="curve"/>
			<point x="119" y="226" type="line"/>
			<point x="237" y="250"/>
			<point x="391" y="281"/>
			<point x="535" y="314" type="curve"/>
			<point x="526" y="426" type="line"/>
			<point x="370" y="399"/>
			<point x="196" y="372"/>
		</contour>
		<contour>
			<point x="283" y="180" type="curve"/>
			<point x="155" y="225" type="line"/>
			<point x="133" y="148"/>
			<point x="88" y="77"/>
			<point x="27" y="32" type="curve"/>
			<point x="146" y="-50" type="line"/>
			<point x="218" y="6"/>
			<point x="257" y="92"/>
		</contour>
		<contour>
			<point x="437" y="83" type="curve" smooth="yes"/>
			<point x="437" y="200" type="line"/>
			<point x="293" y="200" type="line"/>
			<point x="293" y="81" type="line" smooth="yes"/>
			<point x="293" y="-36"/>
			<point x="324" y="-77"/>
			<point x="461" y="-77" type="curve" smooth="yes"/>
			<point x="589" y="-77" type="line" smooth="yes"/>
			<point x="693" y="-77"/>
			<point x="731" y="-42"/>
			<point x="746" y="95" type="curve"/>
			<point x="708" y="104"/>
			<point x="647" y="125"/>
			<point x="619" y="146" type="curve"/>
			<point x="614" y="63"/>
			<point x="608" y="51"/>
			<point x="576" y="51" type="curve" smooth="yes"/>
			<point x="481" y="51" type="line" smooth="yes"/>
			<point x="443" y="51"/>
			<point x="437" y="54"/>
		</contour>
		<contour>
			<point x="462" y="302" type="curve"/>
			<point x="375" y="216" type="line"/>
			<point x="438" y="185"/>
			<point x="505" y="138"/>
			<point x="538" y="102" type="curve"/>
			<point x="632" y="197" type="line"/>
			<point x="595" y="233"/>
			<point x="521" y="277"/>
		</contour>
		<contour>
			<point x="807" y="237" type="curve"/>
			<point x="686" y="169" type="line"/>
			<point x="748" y="104"/>
			<point x="817" y="13"/>
			<point x="843" y="-47" type="curve"/>
			<point x="974" y="28" type="line"/>
			<point x="943" y="91"/>
			<point x="869" y="176"/>
		</contour>
	</outline>
</glyph>
<glyph name="uni60F3" format="2">
	<advance width="1000" height="1000"/>
	<unicode hex="60F3"/>
	<note>
		cid17974
	</note>
	<outline>
		<contour>
			<point x="468" y="716" type="line"/>
			<point x="44" y="716" type="line"/>
			<point x="44" y="594" type="line"/>
			<point x="468" y="594" type="line"/>
		</contour>
		<contour>
			<point x="337" y="854" type="line"/>
			<point x="199" y="854" type="line"/>
			<point x="199" y="242" type="line"/>
			<point x="337" y="242" type="line"/>
		</contour>
		<contour>
			<point x="293" y="603" type="curve"/>
			<point x="195" y="634" type="line"/>
			<point x="159" y="542"/>
			<point x="91" y="444"/>
			<point x="18" y="390" type="curve"/>
			<point x="47" y="367"/>
			<point x="90" y="320"/>
			<point x="111" y="289" type="curve"/>
			<point x="187" y="360"/>
			<point x="254" y="483"/>
		</contour>
		<contour>
			<point x="330" y="572" type="curve"/>
			<point x="256" y="501" type="line"/>
			<point x="299" y="466"/>
			<point x="376" y="393"/>
			<point x="416" y="348" type="curve"/>
			<point x="492" y="464" type="line"/>
			<point x="466" y="483"/>
			<point x="364" y="554"/>
		</contour>
		<contour>
			<point x="637" y="511" type="line"/>
			<point x="637" y="550" type="line"/>
			<point x="785" y="550" type="line"/>
			<point x="785" y="511" type="line"/>
		</contour>
		<contour>
			<point x="637" y="367" type="line"/>
			<point x="637" y="407" type="line"/>
			<point x="785" y="407" type="line"/>
			<point x="785" y="367" type="line"/>
		</contour>
		<contour>
			<point x="637" y="655" type="line"/>
			<point x="637" y="693" type="line"/>
			<point x="785" y="693" type="line"/>
			<point x="785" y="655" type="line"/>
		</contour>
		<contour>
			<point x="924" y="806" type="line"/>
			<point x="505" y="806" type="line"/>
			<point x="505" y="255" type="line"/>
			<point x="924" y="255" type="line"/>
		</contour>
		<contour>
			<point x="437" y="76" type="curve" smooth="yes"/>
			<point x="437" y="189" type="line"/>
			<point x="293" y="189" type="line"/>
			<point x="293" y="74" type="line" smooth="yes"/>
			<point x="293" y="-44"/>
			<point x="325" y="-84"/>
			<point x="468" y="-84" type="curve" smooth="yes"/>
			<point x="496" y="-84"/>
			<point x="574" y="-84"/>
			<point x="603" y="-84" type="curve" smooth="yes"/>
			<point x="708" y="-84"/>
			<point x="747" y="-51"/>
			<point x="763" y="61" type="curve"/>
			<point x="725" y="69"/>
			<point x="663" y="90"/>
			<point x="635" y="111" type="curve"/>
			<point x="630" y="55"/>
			<point x="624" y="44"/>
			<point x="590" y="44" type="curve" smooth="yes"/>
			<point x="566" y="44"/>
			<point x="505" y="44"/>
			<point x="487" y="44" type="curve" smooth="yes"/>
			<point x="444" y="44"/>
			<point x="437" y="47"/>
		</contour>
		<contour>
			<point x="487" y="285" type="curve"/>
			<point x="392" y="210" type="line"/>
			<point x="454" y="166"/>
			<point x="510" y="113"/>
			<point x="539" y="72" type="curve"/>
			<point x="641" y="154" type="line"/>
			<point x="611" y="193"/>
			<point x="552" y="244"/>
		</contour>
		<contour>
			<point x="804" y="220" type="curve"/>
			<point x="685" y="148" type="line"/>
			<point x="755" y="83"/>
			<point x="817" y="0"/>
			<point x="846" y="-68" type="curve"/>
			<point x="974" y="7" type="line"/>
			<point x="944" y="73"/>
			<point x="878" y="155"/>
		</contour>
		<contour>
			<point x="286" y="156" type="curve"/>
			<point x="156" y="207" type="line"/>
			<point x="133" y="132"/>
			<point x="82" y="59"/>
			<point x="24" y="18" type="curve"/>
			<point x="144" y="-66" type="line"/>
			<point x="203" y="-18"/>
			<point x="258" y="68"/>
		</contour>
	</outline>
</glyph>
<glyph name="uni63DE" format="2">
	<advance width="1000" height="1000"/>
	<unicode hex="63DE"/>
	<note>
		cid19260
	</note>
	<outline>
		<contour>
			<point x="370" y="673" type="line"/>
			<point x="32" y="673" type="line"/>
			<point x="32" y="539" type="line"/>
			<point x="370" y="539" type="line"/>
		</contour>
		<contour>
			<point x="281" y="52" type="curve" smooth="yes"/>
			<point x="281" y="855" type="line"/>
			<point x="142" y="855" type="line"/>
			<point x="142" y="53" type="line" smooth="yes"/>
			<point x="142" y="39"/>
			<point x="137" y="34"/>
			<point x="123" y="34" type="curve" smooth="yes"/>
			<point x="110" y="34"/>
			<point x="69" y="34"/>
			<point x="34" y="36" type="curve"/>
			<point x="51" y="0"/>
			<point x="68" y="-57"/>
			<point x="72" y="-93" type="curve"/>
			<point x="144" y="-93"/>
			<point x="195" y="-89"/>
			<point x="232" y="-68" type="curve" smooth="yes"/>
			<point x="269" y="-46"/>
			<point x="281" y="-12"/>
		</contour>
		<contour>
			<point x="16" y="351" type="curve"/>
			<point x="51" y="212" type="line"/>
			<point x="161" y="239"/>
			<point x="292" y="272"/>
			<point x="383" y="296" type="curve"/>
			<point x="366" y="427" type="line"/>
			<point x="274" y="405"/>
			<point x="139" y="376"/>
		</contour>
		<contour>
			<point x="956" y="754" type="line"/>
			<point x="388" y="754" type="line"/>
			<point x="388" y="628" type="line"/>
			<point x="956" y="628" type="line"/>
		</contour>
		<contour>
			<point x="975" y="544" type="line"/>
			<point x="362" y="544" type="line"/>
			<point x="362" y="413" type="line"/>
			<point x="975" y="413" type="line"/>
		</contour>
		<contour>
			<point x="856" y="212" type="line"/>
			<point x="505" y="212" type="line"/>
			<point x="505" y="105" type="line"/>
			<point x="856" y="105" type="line"/>
		</contour>
		<contour>
			<point x="856" y="57" type="line"/>
			<point x="505" y="57" type="line"/>
			<point x="505" y="-61" type="line"/>
			<point x="856" y="-61" type="line"/>
		</contour>
		<contour>
			<point x="747" y="855" type="line"/>
			<point x="599" y="855" type="line"/>
			<point x="599" y="699" type="line"/>
			<point x="747" y="699" type="line"/>
		</contour>
		<contour>
			<point x="590" y="651" type="curve"/>
			<point x="468" y="626" type="line"/>
			<point x="482" y="587"/>
			<point x="494" y="543"/>
			<point x="498" y="511" type="curve"/>
			<point x="623" y="536" type="line"/>
			<point x="620" y="565"/>
			<point x="607" y="609"/>
		</contour>
		<contour>
			<point x="891" y="629" type="curve"/>
			<point x="754" y="651" type="line"/>
			<point x="746" y="612"/>
			<point x="733" y="567"/>
			<point x="720" y="535" type="curve"/>
			<point x="841" y="511" type="line"/>
			<point x="856" y="543"/>
			<point x="876" y="588"/>
		</contour>
		<contour>
			<point x="921" y="375" type="line"/>
			<point x="429" y="375" type="line"/>
			<point x="429" y="-95" type="line"/>
			<point x="563" y="-95" type="line"/>
			<point x="563" y="257" type="line"/>
			<point x="780" y="257" type="line"/>
			<point x="780" y="-95" type="line"/>
			<point x="921" y="-95" type="line"/>
		</contour>
	</outline>
</glyph>
<glyph name="uni69A3" format="2">
	<advance width="1000"/>
	<unicode hex="69A3"/>
	<note>
		cid21798
	</note>
	<outline>
		<contour>
			<point x="753" y="828" type="curve"/>
			<point x="620" y="856" type="line"/>
			<point x="559" y="785"/>
			<point x="443" y="718"/>
			<point x="321" y="683" type="curve"/>
			<point x="346" y="661"/>
			<point x="381" y="612"/>
			<point x="395" y="581" type="curve"/>
			<point x="535" y="627"/>
			<point x="673" y="722"/>
		</contour>
		<contour>
			<point x="874" y="795" type="line"/>
			<point x="617" y="795" type="line"/>
			<point x="545" y="692" type="line"/>
			<point x="874" y="692" type="line"/>
		</contour>
		<contour>
			<point x="852" y="795" type="line"/>
			<point x="822" y="795" type="line"/>
			<point x="822" y="778" type="line"/>
			<point x="759" y="628"/>
			<point x="582" y="528"/>
			<point x="326" y="499" type="curve"/>
			<point x="351" y="465"/>
			<point x="378" y="414"/>
			<point x="387" y="382" type="curve"/>
			<point x="667" y="422"/>
			<point x="871" y="559"/>
			<point x="955" y="764" type="curve"/>
			<point x="873" y="800" type="line"/>
		</contour>
		<contour>
			<point x="626" y="456" type="curve"/>
			<point x="506" y="489" type="line"/>
			<point x="478" y="422"/>
			<point x="424" y="357"/>
			<point x="365" y="319" type="curve"/>
			<point x="394" y="298"/>
			<point x="442" y="255"/>
			<point x="464" y="229" type="curve"/>
			<point x="527" y="277"/>
			<point x="590" y="365"/>
		</contour>
		<contour>
			<point x="945" y="430" type="line"/>
			<point x="562" y="430" type="line"/>
			<point x="502" y="314" type="line"/>
			<point x="945" y="314" type="line"/>
		</contour>
		<contour>
			<point x="978" y="263" type="line"/>
			<point x="342" y="263" type="line"/>
			<point x="342" y="147" type="line"/>
			<point x="978" y="147" type="line"/>
		</contour>
		<contour>
			<point x="746" y="373" type="line"/>
			<point x="605" y="373" type="line"/>
			<point x="605" y="3" type="line"/>
			<point x="746" y="3" type="line"/>
		</contour>
		<contour>
			<point x="528" y="121" type="line"/>
			<point x="399" y="121" type="line"/>
			<point x="399" y="-95" type="line"/>
			<point x="528" y="-95" type="line"/>
		</contour>
		<contour>
			<point x="949" y="121" type="line"/>
			<point x="818" y="121" type="line"/>
			<point x="818" y="-91" type="line"/>
			<point x="949" y="-91" type="line"/>
		</contour>
		<contour>
			<point x="870" y="50" type="line"/>
			<point x="464" y="50" type="line"/>
			<point x="464" y="-66" type="line"/>
			<point x="870" y="-66" type="line"/>
		</contour>
		<contour>
			<point x="612" y="714" type="curve"/>
			<point x="541" y="659" type="line"/>
			<point x="584" y="630"/>
			<point x="637" y="587"/>
			<point x="662" y="558" type="curve"/>
			<point x="737" y="619" type="line"/>
			<point x="710" y="648"/>
			<point x="655" y="688"/>
		</contour>
		<contour>
			<point x="490" y="654" type="curve"/>
			<point x="413" y="603" type="line"/>
			<point x="452" y="571"/>
			<point x="501" y="523"/>
			<point x="522" y="493" type="curve"/>
			<point x="604" y="549" type="line"/>
			<point x="580" y="580"/>
			<point x="530" y="624"/>
		</contour>
		<contour>
			<point x="358" y="665" type="line"/>
			<point x="34" y="665" type="line"/>
			<point x="34" y="531" type="line"/>
			<point x="358" y="531" type="line"/>
		</contour>
		<contour>
			<point x="278" y="855" type="line"/>
			<point x="147" y="855" type="line"/>
			<point x="147" y="-95" type="line"/>
			<point x="278" y="-95" type="line"/>
		</contour>
		<contour>
			<point x="221" y="531" type="curve"/>
			<point x="146" y="562" type="line"/>
			<point x="125" y="445"/>
			<point x="76" y="296"/>
			<point x="15" y="214" type="curve"/>
			<point x="37" y="174"/>
			<point x="68" y="107"/>
			<point x="80" y="65" type="curve"/>
			<point x="146" y="170"/>
			<point x="197" y="366"/>
		</contour>
		<contour>
			<point x="275" y="507" type="curve"/>
			<point x="212" y="458" type="line"/>
			<point x="244" y="405"/>
			<point x="278" y="331"/>
			<point x="301" y="266" type="curve"/>
			<point x="382" y="362" type="line"/>
			<point x="352" y="408"/>
			<point x="310" y="464"/>
		</contour>
	</outline>
</glyph>
<glyph name="uni6AE5" format="2">
	<advance width="1000" height="1000"/>
	<unicode hex="6AE5"/>
	<note>
		cid22383
	</note>
	<outline>
		<contour>
			<point x="722" y="605" type="line"/>
			<point x="468" y="605" type="line"/>
			<point x="468" y="517" type="line"/>
			<point x="722" y="517" type="line"/>
		</contour>
		<contour>
			<point x="713" y="496" type="line"/>
			<point x="477" y="496" type="line"/>
			<point x="477" y="408" type="line"/>
			<point x="713" y="408" type="line"/>
		</contour>
		<contour>
			<point x="975" y="513" type="line"/>
			<point x="726" y="513" type="line"/>
			<point x="726" y="395" type="line"/>
			<point x="975" y="395" type="line"/>
		</contour>
		<contour>
			<point x="563" y="273" type="line"/>
			<point x="563" y="304" type="line"/>
			<point x="623" y="304" type="line"/>
			<point x="623" y="273" type="line"/>
		</contour>
		<contour>
			<point x="709" y="390" type="line"/>
			<point x="479" y="390" type="line"/>
			<point x="479" y="187" type="line"/>
			<point x="709" y="187" type="line"/>
		</contour>
		<contour>
			<point x="934" y="27" type="curve" smooth="yes"/>
			<point x="934" y="656" type="line"/>
			<point x="820" y="656" type="line"/>
			<point x="820" y="47" type="line" smooth="yes"/>
			<point x="820" y="36"/>
			<point x="815" y="33"/>
			<point x="804" y="33" type="curve" smooth="yes"/>
			<point x="793" y="32"/>
			<point x="758" y="32"/>
			<point x="725" y="34" type="curve"/>
			<point x="740" y="-10"/>
			<point x="752" y="-60"/>
			<point x="756" y="-96" type="curve"/>
			<point x="818" y="-96"/>
			<point x="861" y="-93"/>
			<point x="894" y="-75" type="curve" smooth="yes"/>
			<point x="926" y="-57"/>
			<point x="934" y="-26"/>
		</contour>
		<contour>
			<point x="433" y="29" type="curve"/>
			<point x="453" y="-86" type="line"/>
			<point x="539" y="-69"/>
			<point x="643" y="-48"/>
			<point x="743" y="-26" type="curve"/>
			<point x="736" y="76" type="line"/>
			<point x="622" y="57"/>
			<point x="511" y="39"/>
		</contour>
		<contour>
			<point x="561" y="181" type="curve"/>
			<point x="480" y="168" type="line"/>
			<point x="490" y="130"/>
			<point x="499" y="81"/>
			<point x="499" y="50" type="curve"/>
			<point x="585" y="66" type="line"/>
			<point x="584" y="96"/>
			<point x="573" y="144"/>
		</contour>
		<contour>
			<point x="794" y="354" type="curve"/>
			<point x="706" y="334" type="line"/>
			<point x="726" y="269"/>
			<point x="741" y="185"/>
			<point x="742" y="134" type="curve"/>
			<point x="837" y="158" type="line"/>
			<point x="835" y="208"/>
			<point x="816" y="290"/>
		</contour>
		<contour>
			<point x="710" y="168" type="curve"/>
			<point x="611" y="183" type="line"/>
			<point x="609" y="146"/>
			<point x="604" y="101"/>
			<point x="598" y="68" type="curve"/>
			<point x="674" y="54" type="line"/>
			<point x="685" y="84"/>
			<point x="699" y="129"/>
		</contour>
		<contour>
			<point x="966" y="789" type="line"/>
			<point x="417" y="789" type="line"/>
			<point x="417" y="668" type="line"/>
			<point x="966" y="668" type="line"/>
		</contour>
		<contour>
			<point x="460" y="471" type="curve" smooth="yes"/>
			<point x="460" y="789" type="line"/>
			<point x="336" y="789" type="line"/>
			<point x="336" y="471" type="line" smooth="yes"/>
			<point x="336" y="233"/>
			<point x="310" y="85"/>
			<point x="252" y="-14" type="curve"/>
			<point x="287" y="-36"/>
			<point x="325" y="-67"/>
			<point x="351" y="-96" type="curve"/>
			<point x="424" y="26"/>
			<point x="460" y="214"/>
		</contour>
		<contour>
			<point x="653" y="656" type="line"/>
			<point x="543" y="656" type="line"/>
			<point x="543" y="438" type="line"/>
			<point x="653" y="438" type="line"/>
		</contour>
		<contour>
			<point x="324" y="659" type="line"/>
			<point x="25" y="659" type="line"/>
			<point x="25" y="528" type="line"/>
			<point x="324" y="528" type="line"/>
		</contour>
		<contour>
			<point x="249" y="855" type="line"/>
			<point x="125" y="855" type="line"/>
			<point x="125" y="-95" type="line"/>
			<point x="249" y="-95" type="line"/>
		</contour>
		<contour>
			<point x="205" y="538" type="curve"/>
			<point x="125" y="564" type="line"/>
			<point x="108" y="448"/>
			<point x="62" y="293"/>
			<point x="8" y="201" type="curve"/>
			<point x="28" y="166"/>
			<point x="57" y="112"/>
			<point x="70" y="72" type="curve"/>
			<point x="134" y="183"/>
			<point x="181" y="382"/>
		</contour>
		<contour>
			<point x="238" y="524" type="curve"/>
			<point x="177" y="459" type="line"/>
			<point x="204" y="409"/>
			<point x="253" y="310"/>
			<point x="275" y="249" type="curve"/>
			<point x="351" y="368" type="line"/>
			<point x="335" y="392"/>
			<point x="259" y="500"/>
		</contour>
		<contour>
			<point x="718" y="854" type="line"/>
			<point x="584" y="854" type="line"/>
			<point x="584" y="728" type="line"/>
			<point x="718" y="728" type="line"/>
		</contour>
	</outline>
</glyph>
<glyph name="uni6C26" format="2">
	<advance width="1000"/>
	<unicode hex="6C26"/>
	<note>
		cid22987
	</note>
	<outline>
		<contour>
			<point x="432" y="484" type="line"/>
			<point x="304" y="484" type="line"/>
			<point x="304" y="385" type="line"/>
			<point x="432" y="385" type="line"/>
		</contour>
		<contour>
			<point x="937" y="784" type="line"/>
			<point x="252" y="784" type="line"/>
			<point x="252" y="692" type="line"/>
			<point x="937" y="692" type="line"/>
		</contour>
		<contour>
			<point x="866" y="670" type="line"/>
			<point x="285" y="670" type="line"/>
			<point x="285" y="591" type="line"/>
			<point x="866" y="591" type="line"/>
		</contour>
		<contour>
			<point x="748" y="569" type="line"/>
			<point x="176" y="569" type="line"/>
			<point x="176" y="477" type="line"/>
			<point x="748" y="477" type="line"/>
		</contour>
		<contour>
			<point x="358" y="824" type="curve"/>
			<point x="221" y="859" type="line"/>
			<point x="182" y="757"/>
			<point x="108" y="659"/>
			<point x="22" y="600" type="curve"/>
			<point x="55" y="582"/>
			<point x="114" y="543"/>
			<point x="141" y="519" type="curve"/>
			<point x="224" y="589"/>
			<point x="308" y="703"/>
		</contour>
		<contour>
			<point x="806" y="569" type="curve"/>
			<point x="669" y="569" type="line"/>
			<point x="670" y="208"/>
			<point x="687" y="-95"/>
			<point x="864" y="-95" type="curve" smooth="yes"/>
			<point x="945" y="-95"/>
			<point x="971" y="-36"/>
			<point x="981" y="104" type="curve"/>
			<point x="953" y="124"/>
			<point x="920" y="159"/>
			<point x="894" y="191" type="curve"/>
			<point x="892" y="100"/>
			<point x="887" y="42"/>
			<point x="874" y="42" type="curve" smooth="yes"/>
			<point x="816" y="42"/>
			<point x="802" y="285"/>
		</contour>
		<contour>
			<point x="647" y="433" type="line"/>
			<point x="66" y="433" type="line"/>
			<point x="66" y="329" type="line"/>
			<point x="647" y="329" type="line"/>
		</contour>
		<contour>
			<point x="167" y="320" type="curve"/>
			<point x="77" y="254" type="line"/>
			<point x="132" y="216"/>
			<point x="203" y="157"/>
			<point x="236" y="119" type="curve"/>
			<point x="331" y="191" type="line"/>
			<point x="294" y="230"/>
			<point x="221" y="285"/>
		</contour>
		<contour>
			<point x="360" y="319" type="curve"/>
			<point x="244" y="357" type="line"/>
			<point x="222" y="331"/>
			<point x="185" y="294"/>
			<point x="154" y="268" type="curve"/>
			<point x="245" y="232" type="line"/>
			<point x="278" y="253"/>
			<point x="319" y="283"/>
		</contour>
		<contour>
			<point x="523" y="283" type="curve"/>
			<point x="427" y="331" type="line"/>
			<point x="348" y="243"/>
			<point x="192" y="179"/>
			<point x="45" y="146" type="curve"/>
			<point x="69" y="121"/>
			<point x="96" y="81"/>
			<point x="109" y="51" type="curve"/>
			<point x="270" y="96"/>
			<point x="427" y="171"/>
		</contour>
		<contour>
			<point x="634" y="194" type="curve"/>
			<point x="533" y="246" type="line"/>
			<point x="437" y="124"/>
			<point x="247" y="45"/>
			<point x="51" y="7" type="curve"/>
			<point x="75" y="-22"/>
			<point x="100" y="-64"/>
			<point x="113" y="-96" type="curve"/>
			<point x="325" y="-43"/>
			<point x="518" y="45"/>
		</contour>
		<contour>
			<point x="441" y="127" type="curve"/>
			<point x="355" y="45" type="line"/>
			<point x="456" y="-5"/>
			<point x="543" y="-59"/>
			<point x="581" y="-96" type="curve"/>
			<point x="674" y="-1" type="line"/>
			<point x="632" y="35"/>
			<point x="542" y="84"/>
		</contour>
	</outline>
</glyph>
<glyph name="uni6FB4" format="2">
	<advance width="1000"/>
	<unicode hex="6FB4"/>
	<note>
		cid24488
	</note>
	<outline>
		<contour>
			<point x="965" y="572" type="line"/>
			<point x="286" y="572" type="line"/>
			<point x="286" y="462" type="line"/>
			<point x="965" y="462" type="line"/>
		</contour>
		<contour>
			<point x="483" y="301" type="line"/>
			<point x="483" y="344" type="line"/>
			<point x="767" y="344" type="line"/>
			<point x="767" y="301" type="line"/>
		</contour>
		<contour>
			<point x="907" y="439" type="line"/>
			<point x="352" y="439" type="line"/>
			<point x="352" y="206" type="line"/>
			<point x="907" y="206" type="line"/>
		</contour>
		<contour>
			<point x="751" y="687" type="line"/>
			<point x="751" y="733" type="line"/>
			<point x="807" y="733" type="line"/>
			<point x="807" y="687" type="line"/>
		</contour>
		<contour>
			<point x="603" y="687" type="line"/>
			<point x="603" y="733" type="line"/>
			<point x="658" y="733" type="line"/>
			<point x="658" y="687" type="line"/>
		</contour>
		<contour>
			<point x="457" y="687" type="line"/>
			<point x="457" y="733" type="line"/>
			<point x="511" y="733" type="line"/>
			<point x="511" y="687" type="line"/>
		</contour>
		<contour>
			<point x="929" y="823" type="line"/>
			<point x="342" y="823" type="line"/>
			<point x="342" y="596" type="line"/>
			<point x="929" y="596" type="line"/>
		</contour>
		<contour>
			<point x="720" y="244" type="curve"/>
			<point x="610" y="217" type="line"/>
			<point x="665" y="69"/>
			<point x="755" y="-44"/>
			<point x="898" y="-100" type="curve"/>
			<point x="917" y="-65"/>
			<point x="955" y="-14"/>
			<point x="984" y="12" type="curve"/>
			<point x="855" y="51"/>
			<point x="765" y="137"/>
		</contour>
		<contour>
			<point x="969" y="129" type="curve"/>
			<point x="870" y="202" type="line"/>
			<point x="833" y="174"/>
			<point x="771" y="134"/>
			<point x="727" y="113" type="curve"/>
			<point x="807" y="47" type="line"/>
			<point x="854" y="66"/>
			<point x="915" y="96"/>
		</contour>
		<contour>
			<point x="663" y="216" type="curve"/>
			<point x="564" y="251" type="line"/>
			<point x="501" y="198"/>
			<point x="379" y="162"/>
			<point x="250" y="148" type="curve"/>
			<point x="277" y="122"/>
			<point x="313" y="72"/>
			<point x="331" y="40" type="curve"/>
			<point x="467" y="67"/>
			<point x="589" y="130"/>
		</contour>
		<contour>
			<point x="563" y="184" type="line"/>
			<point x="436" y="132" type="line"/>
			<point x="436" y="-13" type="line"/>
			<point x="563" y="-13" type="line"/>
		</contour>
		<contour>
			<point x="352" y="20" type="curve"/>
			<point x="380" y="-89" type="line"/>
			<point x="466" y="-78"/>
			<point x="591" y="-61"/>
			<point x="704" y="-44" type="curve"/>
			<point x="697" y="65" type="line"/>
			<point x="583" y="49"/>
			<point x="450" y="31"/>
		</contour>
		<contour>
			<point x="157" y="851" type="curve"/>
			<point x="76" y="745" type="line"/>
			<point x="133" y="718"/>
			<point x="205" y="674"/>
			<point x="238" y="641" type="curve"/>
			<point x="325" y="757" type="line"/>
			<point x="288" y="790"/>
			<point x="213" y="828"/>
		</contour>
		<contour>
			<point x="102" y="581" type="curve"/>
			<point x="22" y="474" type="line"/>
			<point x="78" y="449"/>
			<point x="150" y="406"/>
			<point x="182" y="374" type="curve"/>
			<point x="268" y="491" type="line"/>
			<point x="231" y="523"/>
			<point x="158" y="560"/>
		</contour>
		<contour>
			<point x="34" y="-6" type="curve"/>
			<point x="166" y="-85" type="line"/>
			<point x="211" y="17"/>
			<point x="255" y="129"/>
			<point x="293" y="238" type="curve"/>
			<point x="176" y="318" type="line"/>
			<point x="132" y="198"/>
			<point x="75" y="73"/>
		</contour>
	</outline>
</glyph>
<glyph name="uni7423" format="2">
	<advance width="1000" height="1000"/>
	<unicode hex="7423"/>
	<note>
		cid26534
	</note>
	<outline>
		<contour>
			<point x="379" y="782" type="line"/>
			<point x="32" y="782" type="line"/>
			<point x="32" y="648" type="line"/>
			<point x="379" y="648" type="line"/>
		</contour>
		<contour>
			<point x="374" y="496" type="line"/>
			<point x="40" y="496" type="line"/>
			<point x="40" y="363" type="line"/>
			<point x="374" y="363" type="line"/>
		</contour>
		<contour>
			<point x="11" y="155" type="curve"/>
			<point x="39" y="16" type="line"/>
			<point x="145" y="43"/>
			<point x="281" y="77"/>
			<point x="408" y="110" type="curve"/>
			<point x="393" y="235" type="line"/>
			<point x="255" y="204"/>
			<point x="108" y="172"/>
		</contour>
		<contour>
			<point x="284" y="729" type="line"/>
			<point x="144" y="729" type="line"/>
			<point x="144" y="122" type="line"/>
			<point x="284" y="142" type="line"/>
		</contour>
		<contour>
			<point x="747" y="854" type="line"/>
			<point x="604" y="854" type="line"/>
			<point x="604" y="696" type="line"/>
			<point x="747" y="696" type="line"/>
		</contour>
		<contour>
			<point x="943" y="757" type="line"/>
			<point x="420" y="757" type="line"/>
			<point x="420" y="628" type="line"/>
			<point x="943" y="628" type="line"/>
		</contour>
		<contour>
			<point x="847" y="69" type="line"/>
			<point x="491" y="69" type="line"/>
			<point x="491" y="-58" type="line"/>
			<point x="847" y="-58" type="line"/>
		</contour>
		<contour>
			<point x="975" y="477" type="line"/>
			<point x="385" y="477" type="line"/>
			<point x="385" y="347" type="line"/>
			<point x="975" y="347" type="line"/>
		</contour>
		<contour>
			<point x="585" y="644" type="curve"/>
			<point x="462" y="613" type="line"/>
			<point x="482" y="564"/>
			<point x="501" y="499"/>
			<point x="505" y="458" type="curve"/>
			<point x="636" y="493" type="line"/>
			<point x="630" y="534"/>
			<point x="608" y="597"/>
		</contour>
		<contour>
			<point x="901" y="615" type="curve"/>
			<point x="759" y="644" type="line"/>
			<point x="749" y="592"/>
			<point x="732" y="533"/>
			<point x="715" y="493" type="curve"/>
			<point x="838" y="463" type="line"/>
			<point x="857" y="502"/>
			<point x="881" y="560"/>
		</contour>
		<contour>
			<point x="914" y="306" type="line"/>
			<point x="447" y="306" type="line"/>
			<point x="447" y="-96" type="line"/>
			<point x="582" y="-96" type="line"/>
			<point x="582" y="177" type="line"/>
			<point x="772" y="177" type="line"/>
			<point x="772" y="-92" type="line"/>
			<point x="914" y="-92" type="line"/>
		</contour>
	</outline>
</glyph>
<glyph name="uni7838" format="2">
	<advance width="1000"/>
	<unicode hex="7838"/>
	<note>
		cid28401
	</note>
	<outline>
		<contour>
			<point x="793" y="663" type="line"/>
			<point x="681" y="663" type="line"/>
			<point x="681" y="81" type="line"/>
			<point x="793" y="81" type="line"/>
		</contour>
		<contour>
			<point x="878" y="584" type="line"/>
			<point x="551" y="584" type="line"/>
			<point x="551" y="170" type="line"/>
			<point x="652" y="170" type="line"/>
			<point x="652" y="466" type="line"/>
			<point x="878" y="466" type="line"/>
		</contour>
		<contour>
			<point x="967" y="61" type="line"/>
			<point x="495" y="61" type="line"/>
			<point x="495" y="-70" type="line"/>
			<point x="967" y="-70" type="line"/>
		</contour>
		<contour>
			<point x="964" y="814" type="line"/>
			<point x="395" y="814" type="line"/>
			<point x="395" y="-96" type="line"/>
			<point x="523" y="-96" type="line"/>
			<point x="523" y="683" type="line"/>
			<point x="964" y="683" type="line"/>
		</contour>
		<contour>
			<point x="933" y="285" type="curve" smooth="yes"/>
			<point x="933" y="584" type="line"/>
			<point x="822" y="584" type="line"/>
			<point x="822" y="288" type="line" smooth="yes"/>
			<point x="822" y="280"/>
			<point x="820" y="278"/>
			<point x="814" y="278" type="curve" smooth="yes"/>
			<point x="809" y="278"/>
			<point x="797" y="278"/>
			<point x="785" y="278" type="curve"/>
			<point x="799" y="249"/>
			<point x="815" y="201"/>
			<point x="818" y="169" type="curve"/>
			<point x="852" y="169"/>
			<point x="878" y="171"/>
			<point x="903" y="190" type="curve" smooth="yes"/>
			<point x="928" y="210"/>
			<point x="933" y="241"/>
		</contour>
		<contour>
			<point x="380" y="811" type="line"/>
			<point x="34" y="811" type="line"/>
			<point x="34" y="686" type="line"/>
			<point x="380" y="686" type="line"/>
		</contour>
		<contour>
			<point x="370" y="500" type="line"/>
			<point x="146" y="500" type="line"/>
			<point x="146" y="376" type="line"/>
			<point x="254" y="376" type="line"/>
			<point x="254" y="152" type="line"/>
			<point x="146" y="152" type="line"/>
			<point x="146" y="28" type="line"/>
			<point x="370" y="28" type="line"/>
		</contour>
		<contour>
			<point x="270" y="725" type="curve"/>
			<point x="135" y="745" type="line"/>
			<point x="117" y="567"/>
			<point x="83" y="394"/>
			<point x="7" y="286" type="curve"/>
			<point x="32" y="253"/>
			<point x="71" y="179"/>
			<point x="83" y="145" type="curve"/>
			<point x="188" y="284"/>
			<point x="242" y="504"/>
		</contour>
		<contour>
			<point x="209" y="500" type="line"/>
			<point x="96" y="500" type="line"/>
			<point x="96" y="-45" type="line"/>
			<point x="209" y="-45" type="line"/>
		</contour>
	</outline>
</glyph>
<glyph name="uni7DD4" format="2">
	<advance width="1000" height="1000"/>
	<unicode hex="7DD4"/>
	<note>
		cid31243
	</note>
	<outline>
		<contour>
			<point x="292" y="812" type="curve"/>
			<point x="170" y="854" type="line"/>
			<point x="149" y="783"/>
			<point x="108" y="686"/>
			<point x="73" y="625" type="curve"/>
			<point x="167" y="587" type="line"/>
			<point x="204" y="644"/>
			<point x="250" y="732"/>
		</contour>
		<contour>
			<point x="391" y="682" type="curve"/>
			<point x="278" y="733" type="line"/>
			<point x="230" y="625"/>
			<point x="146" y="481"/>
			<point x="75" y="390" type="curve"/>
			<point x="155" y="346" type="line"/>
			<point x="228" y="431"/>
			<point x="319" y="568"/>
		</contour>
		<contour>
			<point x="87" y="707" type="curve"/>
			<point x="18" y="611" type="line"/>
			<point x="66" y="560"/>
			<point x="124" y="489"/>
			<point x="145" y="440" type="curve"/>
			<point x="220" y="549" type="line"/>
			<point x="197" y="595"/>
			<point x="137" y="660"/>
		</contour>
		<contour>
			<point x="345" y="532" type="curve"/>
			<point x="252" y="494" type="line"/>
			<point x="286" y="421"/>
			<point x="316" y="325"/>
			<point x="323" y="265" type="curve"/>
			<point x="423" y="308" type="line"/>
			<point x="414" y="369"/>
			<point x="381" y="461"/>
		</contour>
		<contour>
			<point x="18" y="418" type="curve"/>
			<point x="33" y="294" type="line"/>
			<point x="124" y="302"/>
			<point x="241" y="311"/>
			<point x="351" y="321" type="curve"/>
			<point x="349" y="439" type="line"/>
			<point x="229" y="431"/>
			<point x="105" y="422"/>
		</contour>
		<contour>
			<point x="361" y="262" type="curve"/>
			<point x="267" y="233" type="line"/>
			<point x="289" y="175"/>
			<point x="308" y="99"/>
			<point x="312" y="49" type="curve"/>
			<point x="412" y="81" type="line"/>
			<point x="405" y="131"/>
			<point x="385" y="205"/>
		</contour>
		<contour>
			<point x="161" y="239" type="curve"/>
			<point x="51" y="258" type="line"/>
			<point x="45" y="175"/>
			<point x="32" y="85"/>
			<point x="6" y="27" type="curve"/>
			<point x="33" y="17"/>
			<point x="83" y="-6"/>
			<point x="106" y="-21" type="curve"/>
			<point x="133" y="43"/>
			<point x="153" y="143"/>
		</contour>
		<contour>
			<point x="276" y="351" type="line"/>
			<point x="155" y="351" type="line"/>
			<point x="155" y="-95" type="line"/>
			<point x="276" y="-95" type="line"/>
		</contour>
		<contour>
			<point x="864" y="832" type="curve"/>
			<point x="750" y="776" type="line"/>
			<point x="795" y="713"/>
			<point x="834" y="635"/>
			<point x="851" y="575" type="curve"/>
			<point x="975" y="643" type="line"/>
			<point x="952" y="701"/>
			<point x="909" y="774"/>
		</contour>
		<contour>
			<point x="745" y="856" type="line"/>
			<point x="599" y="856" type="line"/>
			<point x="599" y="473" type="line"/>
			<point x="745" y="473" type="line"/>
		</contour>
		<contour>
			<point x="662" y="395" type="line"/>
			<point x="557" y="395" type="line"/>
			<point x="557" y="53" type="line"/>
			<point x="662" y="53" type="line"/>
		</contour>
		<contour>
			<point x="950" y="52" type="curve" smooth="yes"/>
			<point x="950" y="568" type="line"/>
			<point x="827" y="568" type="line"/>
			<point x="827" y="55" type="line" smooth="yes"/>
			<point x="827" y="41"/>
			<point x="823" y="37"/>
			<point x="805" y="37" type="curve" smooth="yes"/>
			<point x="787" y="37"/>
			<point x="738" y="37"/>
			<point x="700" y="39" type="curve"/>
			<point x="717" y="4"/>
			<point x="735" y="-54"/>
			<point x="740" y="-92" type="curve"/>
			<point x="811" y="-92"/>
			<point x="857" y="-90"/>
			<point x="898" y="-69" type="curve" smooth="yes"/>
			<point x="939" y="-48"/>
			<point x="950" y="-12"/>
		</contour>
		<contour>
			<point x="594" y="785" type="curve"/>
			<point x="469" y="823" type="line"/>
			<point x="457" y="760"/>
			<point x="422" y="693"/>
			<point x="378" y="649" type="curve"/>
			<point x="413" y="633"/>
			<point x="463" y="600"/>
			<point x="490" y="575" type="curve"/>
			<point x="536" y="626"/>
			<point x="576" y="707"/>
		</contour>
		<contour>
			<point x="882" y="568" type="line"/>
			<point x="409" y="568" type="line"/>
			<point x="409" y="-95" type="line"/>
			<point x="532" y="-95" type="line"/>
			<point x="532" y="439" type="line"/>
			<point x="882" y="439" type="line"/>
		</contour>
		<contour>
			<point x="802" y="395" type="line"/>
			<point x="597" y="395" type="line"/>
			<point x="597" y="287" type="line"/>
			<point x="697" y="287" type="line"/>
			<point x="697" y="208" type="line"/>
			<point x="597" y="208" type="line"/>
			<point x="597" y="100" type="line"/>
			<point x="802" y="100" type="line"/>
		</contour>
	</outline>
</glyph>
<glyph name="uni7FF1" format="2">
	<advance width="1000"/>
	<unicode hex="7FF1"/>
	<note>
		cid32230
	</note>
	<outline>
		<contour>
			<point x="186" y="539" type="line"/>
			<point x="186" y="570" type="line"/>
			<point x="327" y="570" type="line"/>
			<point x="327" y="539" type="line"/>
		</contour>
		<contour>
			<point x="186" y="655" type="line"/>
			<point x="186" y="685" type="line"/>
			<point x="327" y="685" type="line"/>
			<point x="327" y="655" type="line"/>
		</contour>
		<contour>
			<point x="451" y="776" type="line"/>
			<point x="68" y="776" type="line"/>
			<point x="68" y="448" type="line"/>
			<point x="451" y="448" type="line"/>
		</contour>
		<contour>
			<point x="327" y="850" type="curve"/>
			<point x="180" y="858" type="line"/>
			<point x="178" y="825"/>
			<point x="170" y="781"/>
			<point x="162" y="746" type="curve"/>
			<point x="282" y="733" type="line"/>
			<point x="294" y="762"/>
			<point x="311" y="803"/>
		</contour>
		<contour>
			<point x="476" y="408" type="line"/>
			<point x="34" y="408" type="line"/>
			<point x="34" y="303" type="line"/>
			<point x="476" y="303" type="line"/>
		</contour>
		<contour>
			<point x="453" y="136" type="line"/>
			<point x="65" y="136" type="line"/>
			<point x="65" y="28" type="line"/>
			<point x="453" y="28" type="line"/>
		</contour>
		<contour>
			<point x="325" y="220" type="line"/>
			<point x="201" y="220" type="line"/>
			<point x="201" y="-95" type="line"/>
			<point x="325" y="-95" type="line"/>
		</contour>
		<contour>
			<point x="306" y="456" type="curve"/>
			<point x="185" y="456" type="line"/>
			<point x="171" y="370"/>
			<point x="142" y="280"/>
			<point x="16" y="226" type="curve"/>
			<point x="42" y="206"/>
			<point x="73" y="165"/>
			<point x="87" y="138" type="curve"/>
			<point x="242" y="212"/>
			<point x="285" y="328"/>
		</contour>
		<contour>
			<point x="336" y="370" type="curve"/>
			<point x="254" y="305" type="line"/>
			<point x="305" y="255"/>
			<point x="354" y="198"/>
			<point x="381" y="156" type="curve"/>
			<point x="467" y="230" type="line"/>
			<point x="437" y="269"/>
			<point x="387" y="323"/>
		</contour>
		<contour>
			<point x="635" y="816" type="line"/>
			<point x="485" y="816" type="line"/>
			<point x="485" y="686" type="line"/>
			<point x="635" y="686" type="line"/>
		</contour>
		<contour>
			<point x="701" y="49" type="curve" smooth="yes"/>
			<point x="701" y="816" type="line"/>
			<point x="580" y="816" type="line"/>
			<point x="580" y="52" type="line" smooth="yes"/>
			<point x="580" y="39"/>
			<point x="576" y="34"/>
			<point x="565" y="34" type="curve" smooth="yes"/>
			<point x="554" y="34"/>
			<point x="519" y="34"/>
			<point x="489" y="36" type="curve"/>
			<point x="506" y="2"/>
			<point x="523" y="-58"/>
			<point x="526" y="-94" type="curve"/>
			<point x="586" y="-94"/>
			<point x="628" y="-90"/>
			<point x="660" y="-68" type="curve" smooth="yes"/>
			<point x="693" y="-46"/>
			<point x="701" y="-9"/>
		</contour>
		<contour>
			<point x="879" y="816" type="line"/>
			<point x="720" y="816" type="line"/>
			<point x="720" y="686" type="line"/>
			<point x="879" y="686" type="line"/>
		</contour>
		<contour>
			<point x="938" y="51" type="curve" smooth="yes"/>
			<point x="938" y="816" type="line"/>
			<point x="815" y="816" type="line"/>
			<point x="815" y="54" type="line" smooth="yes"/>
			<point x="815" y="39"/>
			<point x="810" y="34"/>
			<point x="798" y="34" type="curve" smooth="yes"/>
			<point x="785" y="34"/>
			<point x="743" y="34"/>
			<point x="707" y="36" type="curve"/>
			<point x="725" y="2"/>
			<point x="743" y="-61"/>
			<point x="747" y="-97" type="curve"/>
			<point x="813" y="-97"/>
			<point x="859" y="-94"/>
			<point x="894" y="-71" type="curve" smooth="yes"/>
			<point x="929" y="-49"/>
			<point x="938" y="-11"/>
		</contour>
		<contour>
			<point x="650" y="635" type="curve"/>
			<point x="540" y="670" type="line"/>
			<point x="513" y="607"/>
			<point x="469" y="536"/>
			<point x="426" y="490" type="curve"/>
			<point x="454" y="475"/>
			<point x="501" y="446"/>
			<point x="524" y="427" type="curve"/>
			<point x="565" y="478"/>
			<point x="617" y="562"/>
		</contour>
		<contour>
			<point x="880" y="635" type="curve"/>
			<point x="770" y="670" type="line"/>
			<point x="743" y="609"/>
			<point x="699" y="539"/>
			<point x="657" y="494" type="curve"/>
			<point x="684" y="480"/>
			<point x="731" y="450"/>
			<point x="754" y="431" type="curve"/>
			<point x="795" y="481"/>
			<point x="847" y="564"/>
		</contour>
		<contour>
			<point x="668" y="369" type="curve"/>
			<point x="554" y="401" type="line"/>
			<point x="527" y="323"/>
			<point x="481" y="240"/>
			<point x="431" y="188" type="curve"/>
			<point x="460" y="173"/>
			<point x="509" y="141"/>
			<point x="532" y="121" type="curve"/>
			<point x="580" y="181"/>
			<point x="635" y="278"/>
		</contour>
		<contour>
			<point x="878" y="380" type="curve"/>
			<point x="764" y="412" type="line"/>
			<point x="737" y="333"/>
			<point x="691" y="248"/>
			<point x="641" y="194" type="curve"/>
			<point x="669" y="179"/>
			<point x="718" y="147"/>
			<point x="742" y="128" type="curve"/>
			<point x="790" y="189"/>
			<point x="845" y="288"/>
		</contour>
	</outline>
</glyph>
<glyph name="uni81E2" format="2">
	<advance width="1000"/>
	<unicode hex="81E2"/>
	<note>
		cid33271
	</note>
	<outline>
		<contour>
			<point x="598" y="621" type="line"/>
			<point x="508" y="621" type="line"/>
			<point x="508" y="508" type="line"/>
			<point x="598" y="508" type="line"/>
		</contour>
		<contour>
			<point x="481" y="526" type="curve"/>
			<point x="503" y="440" type="line"/>
			<point x="551" y="450"/>
			<point x="595" y="459"/>
			<point x="644" y="471" type="curve"/>
			<point x="639" y="548" type="line"/>
			<point x="577" y="539"/>
			<point x="525" y="530"/>
		</contour>
		<contour>
			<point x="286" y="821" type="line"/>
			<point x="114" y="821" type="line"/>
			<point x="114" y="690" type="line"/>
			<point x="286" y="690" type="line"/>
		</contour>
		<contour>
			<point x="285" y="596" type="line"/>
			<point x="104" y="596" type="line"/>
			<point x="104" y="465" type="line"/>
			<point x="285" y="465" type="line"/>
		</contour>
		<contour>
			<point x="285" y="367" type="line"/>
			<point x="104" y="367" type="line"/>
			<point x="104" y="233" type="line"/>
			<point x="285" y="233" type="line"/>
		</contour>
		<contour>
			<point x="176" y="453" type="curve" smooth="yes"/>
			<point x="176" y="821" type="line"/>
			<point x="64" y="821" type="line"/>
			<point x="64" y="452" type="line" smooth="yes"/>
			<point x="64" y="305"/>
			<point x="62" y="100"/>
			<point x="16" y="-39" type="curve"/>
			<point x="44" y="-49"/>
			<point x="95" y="-77"/>
			<point x="117" y="-94" type="curve"/>
			<point x="168" y="57"/>
			<point x="176" y="293"/>
		</contour>
		<contour>
			<point x="330" y="46" type="curve" smooth="yes"/>
			<point x="330" y="821" type="line"/>
			<point x="214" y="821" type="line"/>
			<point x="214" y="49" type="line" smooth="yes"/>
			<point x="214" y="38"/>
			<point x="211" y="35"/>
			<point x="203" y="35" type="curve" smooth="yes"/>
			<point x="195" y="35"/>
			<point x="173" y="35"/>
			<point x="153" y="36" type="curve"/>
			<point x="169" y="3"/>
			<point x="182" y="-56"/>
			<point x="184" y="-90" type="curve"/>
			<point x="233" y="-90"/>
			<point x="267" y="-86"/>
			<point x="296" y="-64" type="curve" smooth="yes"/>
			<point x="324" y="-43"/>
			<point x="330" y="-6"/>
		</contour>
		<contour>
			<point x="622" y="788" type="line"/>
			<point x="387" y="788" type="line"/>
			<point x="387" y="702" type="line"/>
			<point x="622" y="702" type="line"/>
		</contour>
		<contour>
			<point x="630" y="672" type="line"/>
			<point x="341" y="672" type="line"/>
			<point x="341" y="585" type="line"/>
			<point x="630" y="585" type="line"/>
		</contour>
		<contour>
			<point x="545" y="229" type="line"/>
			<point x="545" y="250" type="line"/>
			<point x="762" y="250" type="line"/>
			<point x="762" y="229" type="line"/>
		</contour>
		<contour>
			<point x="545" y="137" type="line"/>
			<point x="545" y="158" type="line"/>
			<point x="762" y="158" type="line"/>
			<point x="762" y="137" type="line"/>
		</contour>
		<contour>
			<point x="545" y="321" type="line"/>
			<point x="545" y="341" type="line"/>
			<point x="762" y="341" type="line"/>
			<point x="762" y="321" type="line"/>
		</contour>
		<contour>
			<point x="895" y="433" type="line"/>
			<point x="418" y="433" type="line"/>
			<point x="418" y="45" type="line"/>
			<point x="895" y="45" type="line"/>
		</contour>
		<contour>
			<point x="772" y="74" type="curve"/>
			<point x="678" y="3" type="line"/>
			<point x="741" y="-28"/>
			<point x="814" y="-70"/>
			<point x="854" y="-95" type="curve"/>
			<point x="980" y="-25" type="line"/>
			<point x="930" y="1"/>
			<point x="842" y="42"/>
		</contour>
		<contour>
			<point x="449" y="825" type="curve"/>
			<point x="364" y="843" type="line"/>
			<point x="359" y="798"/>
			<point x="351" y="751"/>
			<point x="332" y="715" type="curve"/>
			<point x="352" y="705"/>
			<point x="387" y="681"/>
			<point x="403" y="668" type="curve"/>
			<point x="425" y="707"/>
			<point x="441" y="769"/>
		</contour>
		<contour>
			<point x="490" y="614" type="curve"/>
			<point x="398" y="614" type="line"/>
			<point x="392" y="559"/>
			<point x="376" y="511"/>
			<point x="315" y="480" type="curve"/>
			<point x="335" y="465"/>
			<point x="363" y="429"/>
			<point x="374" y="406" type="curve"/>
			<point x="458" y="454"/>
			<point x="481" y="527"/>
		</contour>
		<contour>
			<point x="896" y="538" type="curve" smooth="yes"/>
			<point x="896" y="621" type="line"/>
			<point x="803" y="621" type="line"/>
			<point x="803" y="538" type="line" smooth="yes"/>
			<point x="803" y="489"/>
			<point x="808" y="472"/>
			<point x="821" y="457" type="curve" smooth="yes"/>
			<point x="833" y="444"/>
			<point x="855" y="437"/>
			<point x="875" y="437" type="curve" smooth="yes"/>
			<point x="886" y="437"/>
			<point x="898" y="437"/>
			<point x="909" y="437" type="curve" smooth="yes"/>
			<point x="921" y="437"/>
			<point x="936" y="440"/>
			<point x="945" y="445" type="curve" smooth="yes"/>
			<point x="956" y="451"/>
			<point x="965" y="458"/>
			<point x="971" y="468" type="curve" smooth="yes"/>
			<point x="977" y="478"/>
			<point x="981" y="499"/>
			<point x="983" y="521" type="curve"/>
			<point x="964" y="528"/>
			<point x="939" y="540"/>
			<point x="926" y="552" type="curve"/>
			<point x="925" y="539"/>
			<point x="924" y="528"/>
			<point x="922" y="523" type="curve" smooth="yes"/>
			<point x="920" y="518"/>
			<point x="918" y="516"/>
			<point x="916" y="515" type="curve" smooth="yes"/>
			<point x="914" y="514"/>
			<point x="912" y="514"/>
			<point x="909" y="514" type="curve" smooth="yes"/>
			<point x="907" y="514"/>
			<point x="905" y="514"/>
			<point x="903" y="514" type="curve" smooth="yes"/>
			<point x="901" y="514"/>
			<point x="898" y="515"/>
			<point x="897" y="518" type="curve" smooth="yes"/>
			<point x="896" y="521"/>
			<point x="896" y="527"/>
		</contour>
		<contour>
			<point x="560" y="851" type="line"/>
			<point x="461" y="851" type="line"/>
			<point x="461" y="626" type="line"/>
			<point x="560" y="626" type="line"/>
		</contour>
		<contour>
			<point x="943" y="788" type="line"/>
			<point x="686" y="788" type="line"/>
			<point x="686" y="702" type="line"/>
			<point x="943" y="702" type="line"/>
		</contour>
		<contour>
			<point x="965" y="672" type="line"/>
			<point x="645" y="672" type="line"/>
			<point x="645" y="585" type="line"/>
			<point x="965" y="585" type="line"/>
		</contour>
		<contour>
			<point x="743" y="823" type="curve"/>
			<point x="660" y="841" type="line"/>
			<point x="654" y="794"/>
			<point x="644" y="746"/>
			<point x="623" y="709" type="curve"/>
			<point x="643" y="699"/>
			<point x="678" y="677"/>
			<point x="694" y="664" type="curve"/>
			<point x="717" y="704"/>
			<point x="735" y="766"/>
		</contour>
		<contour>
			<point x="787" y="615" type="curve"/>
			<point x="694" y="615" type="line"/>
			<point x="690" y="562"/>
			<point x="679" y="519"/>
			<point x="624" y="493" type="curve"/>
			<point x="645" y="477"/>
			<point x="672" y="441"/>
			<point x="683" y="418" type="curve"/>
			<point x="762" y="462"/>
			<point x="781" y="530"/>
		</contour>
		<contour>
			<point x="855" y="851" type="line"/>
			<point x="755" y="851" type="line"/>
			<point x="755" y="621" type="line"/>
			<point x="855" y="621" type="line"/>
		</contour>
		<contour>
			<point x="629" y="4" type="curve"/>
			<point x="523" y="72" type="line"/>
			<point x="480" y="40"/>
			<point x="391" y="3"/>
			<point x="313" y="-14" type="curve"/>
			<point x="342" y="-35"/>
			<point x="381" y="-72"/>
			<point x="402" y="-96" type="curve"/>
			<point x="479" y="-78"/>
			<point x="574" y="-36"/>
		</contour>
	</outline>
</glyph>
<glyph name="uni8BA0" format="2">
	<advance width="1000" height="1000"/>
	<unicode hex="8BA0"/>
	<note>
		cid38429
	</note>
	<outline>
		<contour>
			<point x="203" y="833" type="curve"/>
			<point x="93" y="740" type="line"/>
			<point x="167" y="682"/>
			<point x="232" y="614"/>
			<point x="262" y="564" type="curve"/>
			<point x="379" y="668" type="line"/>
			<point x="346" y="714"/>
			<point x="278" y="778"/>
		</contour>
		<contour>
			<point x="276" y="521" type="line"/>
			<point x="38" y="521" type="line"/>
			<point x="38" y="375" type="line"/>
			<point x="276" y="375" type="line"/>
		</contour>
		<contour>
			<point x="365" y="521" type="line"/>
			<point x="216" y="521" type="line"/>
			<point x="216" y="21" type="line"/>
			<point x="365" y="21" type="line"/>
		</contour>
		<contour>
			<point x="129" y="38" type="curve"/>
			<point x="201" y="-95" type="line"/>
			<point x="300" y="-52"/>
			<point x="424" y="5"/>
			<point x="522" y="54" type="curve"/>
			<point x="489" y="180" type="line"/>
			<point x="371" y="130"/>
			<point x="233" y="75"/>
		</contour>
	</outline>
</glyph>
<glyph name="uni8DB4" format="2">
	<advance width="1000"/>
	<unicode hex="8DB4"/>
	<note>
		cid39179
	</note>
	<outline>
		<contour>
			<point x="178" y="595" type="line"/>
			<point x="178" y="698" type="line"/>
			<point x="295" y="698" type="line"/>
			<point x="295" y="595" type="line"/>
		</contour>
		<contour>
			<point x="422" y="820" type="line"/>
			<point x="60" y="820" type="line"/>
			<point x="60" y="474" type="line"/>
			<point x="422" y="474" type="line"/>
		</contour>
		<contour>
			<point x="312" y="519" type="line"/>
			<point x="190" y="519" type="line"/>
			<point x="190" y="78" type="line"/>
			<point x="312" y="78" type="line"/>
		</contour>
		<contour>
			<point x="165" y="414" type="line"/>
			<point x="53" y="414" type="line"/>
			<point x="53" y="49" type="line"/>
			<point x="165" y="49" type="line"/>
		</contour>
		<contour>
			<point x="13" y="79" type="curve"/>
			<point x="45" y="-57" type="line"/>
			<point x="157" y="-24"/>
			<point x="303" y="20"/>
			<point x="438" y="62" type="curve"/>
			<point x="420" y="185" type="line"/>
			<point x="274" y="144"/>
			<point x="115" y="102"/>
		</contour>
		<contour>
			<point x="413" y="386" type="line"/>
			<point x="246" y="386" type="line"/>
			<point x="246" y="261" type="line"/>
			<point x="413" y="261" type="line"/>
		</contour>
		<contour>
			<point x="665" y="596" type="curve"/>
			<point x="517" y="604" type="line"/>
			<point x="508" y="340"/>
			<point x="470" y="118"/>
			<point x="345" y="-3" type="curve"/>
			<point x="380" y="-23"/>
			<point x="448" y="-73"/>
			<point x="473" y="-96" type="curve"/>
			<point x="602" y="52"/>
			<point x="649" y="297"/>
		</contour>
		<contour>
			<point x="764" y="802" type="line"/>
			<point x="498" y="802" type="line"/>
			<point x="498" y="665" type="line"/>
			<point x="764" y="665" type="line"/>
		</contour>
		<contour>
			<point x="835" y="802" type="curve"/>
			<point x="679" y="802" type="line"/>
			<point x="679" y="735" type="line"/>
			<point x="700" y="735" type="line"/>
			<point x="708" y="415"/>
			<point x="730" y="102"/>
			<point x="857" y="-94" type="curve"/>
			<point x="891" y="-62"/>
			<point x="953" y="-15"/>
			<point x="991" y="6" type="curve"/>
			<point x="867" y="170"/>
			<point x="843" y="488"/>
		</contour>
	</outline>
</glyph>
<glyph name="uni8E2B" format="2">
	<advance width="1000" height="1000"/>
	<unicode hex="8E2B"/>
	<note>
		cid39354
	</note>
	<outline>
		<contour>
			<point x="181" y="595" type="line"/>
			<point x="181" y="700" type="line"/>
			<point x="267" y="700" type="line"/>
			<point x="267" y="595" type="line"/>
		</contour>
		<contour>
			<point x="388" y="820" type="line"/>
			<point x="60" y="820" type="line"/>
			<point x="60" y="475" type="line"/>
			<point x="388" y="475" type="line"/>
		</contour>
		<contour>
			<point x="311" y="524" type="line"/>
			<point x="191" y="524" type="line"/>
			<point x="191" y="69" type="line"/>
			<point x="311" y="69" type="line"/>
		</contour>
		<contour>
			<point x="167" y="417" type="line"/>
			<point x="52" y="417" type="line"/>
			<point x="52" y="43" type="line"/>
			<point x="167" y="43" type="line"/>
		</contour>
		<contour>
			<point x="11" y="67" type="curve"/>
			<point x="47" y="-69" type="line"/>
			<point x="155" y="-38"/>
			<point x="296" y="5"/>
			<point x="413" y="41" type="curve"/>
			<point x="392" y="163" type="line"/>
			<point x="266" y="129"/>
			<point x="119" y="92"/>
		</contour>
		<contour>
			<point x="392" y="386" type="line"/>
			<point x="259" y="386" type="line"/>
			<point x="259" y="261" type="line"/>
			<point x="392" y="261" type="line"/>
		</contour>
		<contour>
			<point x="961" y="675" type="line"/>
			<point x="402" y="675" type="line"/>
			<point x="402" y="554" type="line"/>
			<point x="961" y="554" type="line"/>
		</contour>
		<contour>
			<point x="974" y="58" type="line"/>
			<point x="375" y="58" type="line"/>
			<point x="375" y="-64" type="line"/>
			<point x="974" y="-64" type="line"/>
		</contour>
		<contour>
			<point x="665" y="598" type="line"/>
			<point x="554" y="598" type="line"/>
			<point x="554" y="22" type="line"/>
			<point x="665" y="22" type="line"/>
		</contour>
		<contour>
			<point x="804" y="598" type="line"/>
			<point x="692" y="598" type="line"/>
			<point x="692" y="22" type="line"/>
			<point x="804" y="22" type="line"/>
		</contour>
		<contour>
			<point x="592" y="851" type="curve"/>
			<point x="476" y="815" type="line"/>
			<point x="499" y="763"/>
			<point x="518" y="695"/>
			<point x="523" y="652" type="curve"/>
			<point x="646" y="692" type="line"/>
			<point x="640" y="736"/>
			<point x="617" y="801"/>
		</contour>
		<contour>
			<point x="901" y="817" type="curve"/>
			<point x="763" y="856" type="line"/>
			<point x="753" y="806"/>
			<point x="730" y="739"/>
			<point x="711" y="694" type="curve"/>
			<point x="826" y="657" type="line"/>
			<point x="847" y="697"/>
			<point x="873" y="757"/>
		</contour>
		<contour>
			<point x="528" y="494" type="line"/>
			<point x="421" y="494" type="line"/>
			<point x="421" y="118" type="line"/>
			<point x="609" y="118" type="line"/>
			<point x="609" y="232" type="line"/>
			<point x="528" y="232" type="line"/>
		</contour>
		<contour>
			<point x="942" y="494" type="line"/>
			<point x="833" y="494" type="line"/>
			<point x="833" y="232" type="line"/>
			<point x="749" y="232" type="line"/>
			<point x="749" y="118" type="line"/>
			<point x="942" y="118" type="line"/>
		</contour>
	</outline>
</glyph>
<glyph name="uni93A6" format="2">
	<advance width="1000" height="1000"/>
	<unicode hex="93A6"/>
	<note>
		cid42141
	</note>
	<outline>
		<contour>
			<point x="30" y="46" type="curve"/>
			<point x="59" y="-78" type="line"/>
			<point x="155" y="-60"/>
			<point x="277" y="-38"/>
			<point x="390" y="-15" type="curve"/>
			<point x="380" y="102" type="line"/>
			<point x="253" y="80"/>
			<point x="120" y="58"/>
		</contour>
		<contour>
			<point x="355" y="602" type="line"/>
			<point x="80" y="602" type="line"/>
			<point x="80" y="486" type="line"/>
			<point x="355" y="486" type="line"/>
		</contour>
		<contour>
			<point x="374" y="433" type="line"/>
			<point x="49" y="433" type="line"/>
			<point x="49" y="314" type="line"/>
			<point x="374" y="314" type="line"/>
		</contour>
		<contour>
			<point x="131" y="278" type="curve"/>
			<point x="50" y="258" type="line"/>
			<point x="62" y="205"/>
			<point x="74" y="136"/>
			<point x="76" y="90" type="curve"/>
			<point x="162" y="113" type="line"/>
			<point x="158" y="158"/>
			<point x="146" y="225"/>
		</contour>
		<contour>
			<point x="380" y="267" type="curve"/>
			<point x="293" y="287" type="line"/>
			<point x="288" y="242"/>
			<point x="274" y="176"/>
			<point x="263" y="134" type="curve"/>
			<point x="339" y="115" type="line"/>
			<point x="351" y="155"/>
			<point x="365" y="212"/>
		</contour>
		<contour>
			<point x="271" y="556" type="line"/>
			<point x="156" y="556" type="line"/>
			<point x="156" y="22" type="line"/>
			<point x="271" y="41" type="line"/>
		</contour>
		<contour>
			<point x="242" y="855" type="line"/>
			<point x="167" y="855" type="line"/>
			<point x="138" y="777"/>
			<point x="85" y="685"/>
			<point x="5" y="615" type="curve"/>
			<point x="32" y="596"/>
			<point x="72" y="551"/>
			<point x="90" y="522" type="curve"/>
			<point x="187" y="614"/>
			<point x="244" y="717"/>
			<point x="282" y="793" type="curve"/>
			<point x="282" y="830" type="line"/>
			<point x="242" y="830" type="line"/>
		</contour>
		<contour>
			<point x="271" y="855" type="curve"/>
			<point x="175" y="855" type="line"/>
			<point x="175" y="762" type="line"/>
			<point x="195" y="762" type="line"/>
			<point x="242" y="717"/>
			<point x="300" y="632"/>
			<point x="324" y="582" type="curve"/>
			<point x="419" y="680" type="line"/>
			<point x="389" y="733"/>
			<point x="324" y="804"/>
		</contour>
		<contour>
			<point x="862" y="205" type="line"/>
			<point x="487" y="205" type="line"/>
			<point x="487" y="102" type="line"/>
			<point x="862" y="102" type="line"/>
		</contour>
		<contour>
			<point x="890" y="803" type="line"/>
			<point x="654" y="803" type="line"/>
			<point x="654" y="700" type="line"/>
			<point x="890" y="700" type="line"/>
		</contour>
		<contour>
			<point x="862" y="48" type="line"/>
			<point x="487" y="48" type="line"/>
			<point x="487" y="-60" type="line"/>
			<point x="862" y="-60" type="line"/>
		</contour>
		<contour>
			<point x="653" y="653" type="curve"/>
			<point x="563" y="621" type="line"/>
			<point x="588" y="563"/>
			<point x="608" y="497"/>
			<point x="615" y="450" type="curve"/>
			<point x="711" y="487" type="line"/>
			<point x="702" y="534"/>
			<point x="680" y="599"/>
		</contour>
		<contour>
			<point x="937" y="363" type="line"/>
			<point x="433" y="363" type="line"/>
			<point x="433" y="-90" type="line"/>
			<point x="559" y="-90" type="line"/>
			<point x="559" y="255" type="line"/>
			<point x="805" y="255" type="line"/>
			<point x="805" y="-85" type="line"/>
			<point x="937" y="-85" type="line"/>
		</contour>
		<contour>
			<point x="820" y="761" type="curve"/>
			<point x="712" y="761" type="line"/>
			<point x="709" y="600"/>
			<point x="703" y="501"/>
			<point x="607" y="440" type="curve"/>
			<point x="631" y="422"/>
			<point x="660" y="383"/>
			<point x="672" y="358" type="curve"/>
			<point x="799" y="434"/>
			<point x="816" y="566"/>
		</contour>
		<contour>
			<point x="743" y="306" type="line"/>
			<point x="621" y="306" type="line"/>
			<point x="621" y="-5" type="line"/>
			<point x="743" y="-5" type="line"/>
		</contour>
		<contour>
			<point x="962" y="803" type="curve"/>
			<point x="850" y="803" type="line"/>
			<point x="850" y="784" type="line"/>
			<point x="849" y="581"/>
			<point x="849" y="515"/>
			<point x="841" y="499" type="curve" smooth="yes"/>
			<point x="835" y="489"/>
			<point x="828" y="487"/>
			<point x="818" y="487" type="curve" smooth="yes"/>
			<point x="807" y="487"/>
			<point x="792" y="487"/>
			<point x="771" y="490" type="curve"/>
			<point x="786" y="461"/>
			<point x="797" y="415"/>
			<point x="799" y="381" type="curve"/>
			<point x="832" y="380"/>
			<point x="862" y="382"/>
			<point x="882" y="386" type="curve" smooth="yes"/>
			<point x="906" y="391"/>
			<point x="923" y="400"/>
			<point x="940" y="424" type="curve" smooth="yes"/>
			<point x="959" y="452"/>
			<point x="961" y="542"/>
			<point x="962" y="760" type="curve" smooth="yes"/>
			<point x="962" y="774"/>
			<point x="962" y="803"/>
		</contour>
		<contour>
			<point x="673" y="770" type="curve"/>
			<point x="596" y="854" type="line"/>
			<point x="558" y="819"/>
			<point x="493" y="772"/>
			<point x="449" y="748" type="curve"/>
			<point x="515" y="670" type="line"/>
			<point x="560" y="694"/>
			<point x="624" y="733"/>
		</contour>
		<contour>
			<point x="366" y="490" type="curve"/>
			<point x="420" y="373" type="line"/>
			<point x="492" y="405"/>
			<point x="580" y="448"/>
			<point x="650" y="483" type="curve"/>
			<point x="623" y="582" type="line"/>
			<point x="543" y="551"/>
			<point x="444" y="516"/>
		</contour>
		<contour>
			<point x="526" y="772" type="line"/>
			<point x="412" y="808" type="line"/>
			<point x="412" y="484" type="line"/>
			<point x="526" y="484" type="line"/>
		</contour>
	</outline>
</glyph>
<glyph name="uni98CE" format="2">
	<advance width="1000" height="1000"/>
	<unicode hex="98CE"/>
	<note>
		cid44285
	</note>
	<outline>
		<contour>
			<point x="771" y="829" type="line"/>
			<point x="199" y="829" type="line"/>
			<point x="199" y="689" type="line"/>
			<point x="771" y="689" type="line"/>
		</contour>
		<contour>
			<point x="289" y="556" type="curve" smooth="yes"/>
			<point x="289" y="829" type="line"/>
			<point x="138" y="829" type="line"/>
			<point x="138" y="556" type="line" smooth="yes"/>
			<point x="138" y="393"/>
			<point x="130" y="155"/>
			<point x="21" y="-2" type="curve"/>
			<point x="53" y="-19"/>
			<point x="118" y="-72"/>
			<point x="143" y="-101" type="curve"/>
			<point x="267" y="74"/>
			<point x="289" y="373"/>
		</contour>
		<contour>
			<point x="850" y="829" type="curve"/>
			<point x="704" y="829" type="line"/>
			<point x="702" y="211"/>
			<point x="694" y="-85"/>
			<point x="878" y="-85" type="curve" smooth="yes"/>
			<point x="953" y="-85"/>
			<point x="980" y="-26"/>
			<point x="992" y="103" type="curve"/>
			<point x="966" y="129"/>
			<point x="930" y="181"/>
			<point x="907" y="218" type="curve"/>
			<point x="905" y="142"/>
			<point x="898" y="70"/>
			<point x="889" y="70" type="curve" smooth="yes"/>
			<point x="840" y="70"/>
			<point x="842" y="308"/>
		</contour>
		<contour>
			<point x="351" y="561" type="curve"/>
			<point x="265" y="454" type="line"/>
			<point x="430" y="324"/>
			<point x="573" y="175"/>
			<point x="635" y="66" type="curve"/>
			<point x="734" y="186" type="line"/>
			<point x="668" y="291"/>
			<point x="520" y="435"/>
		</contour>
		<contour>
			<point x="697" y="603" type="curve"/>
			<point x="570" y="639" type="line"/>
			<point x="504" y="426"/>
			<point x="378" y="227"/>
			<point x="243" y="123" type="curve"/>
			<point x="275" y="97"/>
			<point x="322" y="46"/>
			<point x="346" y="12" type="curve"/>
			<point x="488" y="136"/>
			<point x="624" y="364"/>
		</contour>
	</outline>
</glyph>
<glyph name="uni9963" format="2">
	<advance width="1000" height="1000"/>
	<unicode hex="9963"/>
	<note>
		cid44646
	</note>
	<outline>
		<contour>
			<point x="477" y="714" type="line"/>
			<point x="202" y="714" type="line"/>
			<point x="202" y="577" type="line"/>
			<point x="477" y="577" type="line"/>
		</contour>
		<contour>
			<point x="350" y="812" type="curve"/>
			<point x="214" y="845" type="line"/>
			<point x="180" y="702"/>
			<point x="104" y="555"/>
			<point x="17" y="465" type="curve"/>
			<point x="50" y="443"/>
			<point x="107" y="391"/>
			<point x="131" y="365" type="curve"/>
			<point x="221" y="462"/>
			<point x="305" y="634"/>
		</contour>
		<contour>
			<point x="452" y="714" type="line"/>
			<point x="432" y="714" type="line"/>
			<point x="432" y="696" type="line"/>
			<point x="418" y="630"/>
			<point x="392" y="547"/>
			<point x="371" y="496" type="curve"/>
			<point x="492" y="457" type="line"/>
			<point x="521" y="518"/>
			<point x="555" y="608"/>
			<point x="579" y="691" type="curve"/>
			<point x="473" y="719" type="line"/>
		</contour>
		<contour>
			<point x="375" y="482" type="line"/>
			<point x="235" y="482" type="line"/>
			<point x="235" y="31" type="line"/>
			<point x="375" y="31" type="line"/>
		</contour>
		<contour>
			<point x="139" y="38" type="curve"/>
			<point x="211" y="-95" type="line"/>
			<point x="310" y="-52"/>
			<point x="434" y="5"/>
			<point x="532" y="54" type="curve"/>
			<point x="499" y="180" type="line"/>
			<point x="381" y="130"/>
			<point x="243" y="75"/>
		</contour>
	</outline>
</glyph>
<glyph name="u216B1" format="2">
	<advance width="1000" height="1000"/>
	<unicode hex="216B1"/>
	<note>
		cid14239; HK2 variant of uni5983
	</note>
	<outline>
		<contour>
			<point x="922" y="812" type="line"/>
			<point x="565" y="812" type="line"/>
			<point x="565" y="675" type="line"/>
			<point x="779" y="675" type="line"/>
			<point x="779" y="302" type="line"/>
			<point x="922" y="302" type="line"/>
		</contour>
		<contour>
			<point x="858" y="499" type="line"/>
			<point x="565" y="499" type="line"/>
			<point x="565" y="362" type="line"/>
			<point x="858" y="362" type="line"/>
		</contour>
		<contour>
			<point x="640" y="105" type="curve" smooth="yes"/>
			<point x="640" y="812" type="line"/>
			<point x="496" y="812" type="line"/>
			<point x="496" y="104" type="line" smooth="yes"/>
			<point x="496" y="-39"/>
			<point x="537" y="-80"/>
			<point x="668" y="-80" type="curve" smooth="yes"/>
			<point x="696" y="-80"/>
			<point x="782" y="-80"/>
			<point x="811" y="-80" type="curve" smooth="yes"/>
			<point x="929" y="-80"/>
			<point x="967" y="-28"/>
			<point x="983" y="144" type="curve"/>
			<point x="944" y="153"/>
			<point x="883" y="177"/>
			<point x="852" y="201" type="curve"/>
			<point x="846" y="77"/>
			<point x="839" y="54"/>
			<point x="799" y="54" type="curve" smooth="yes"/>
			<point x="777" y="54"/>
			<point x="708" y="54"/>
			<point x="689" y="54" type="curve" smooth="yes"/>
			<point x="646" y="54"/>
			<point x="640" y="60"/>
		</contour>
		<contour>
			<point x="377" y="659" type="line"/>
			<point x="34" y="659" type="line"/>
			<point x="34" y="525" type="line"/>
			<point x="377" y="525" type="line"/>
		</contour>
		<contour>
			<point x="309" y="841" type="curve"/>
			<point x="171" y="855" type="line"/>
			<point x="140" y="649"/>
			<point x="86" y="386"/>
			<point x="41" y="224" type="curve"/>
			<point x="162" y="170" type="line"/>
			<point x="211" y="353"/>
			<point x="269" y="621"/>
		</contour>
		<contour>
			<point x="175" y="348" type="curve"/>
			<point x="100" y="240" type="line"/>
			<point x="204" y="174"/>
			<point x="335" y="73"/>
			<point x="392" y="1" type="curve"/>
			<point x="475" y="125" type="line"/>
			<point x="414" y="196"/>
			<point x="277" y="288"/>
		</contour>
		<contour>
			<point x="349" y="659" type="line"/>
			<point x="324" y="659" type="line"/>
			<point x="324" y="633" type="line"/>
			<point x="307" y="325"/>
			<point x="221" y="105"/>
			<point x="38" y="20" type="curve"/>
			<point x="67" y="-8"/>
			<point x="104" y="-62"/>
			<point x="123" y="-98" type="curve"/>
			<point x="343" y="27"/>
			<point x="439" y="248"/>
			<point x="461" y="648" type="curve"/>
			<point x="373" y="662" type="line"/>
		</contour>
	</outline>
</glyph>
<glyph name="uni4E49.JP" format="2">
	<advance width="1000" height="1000"/>
	<note>
		cid09580
	</note>
	<outline>
		<contour>
			<point x="294" y="757" type="curve"/>
			<point x="145" y="718" type="line"/>
			<point x="268" y="280"/>
			<point x="510" y="12"/>
			<point x="873" y="-93" type="curve"/>
			<point x="895" y="-54"/>
			<point x="942" y="13"/>
			<point x="976" y="43" type="curve"/>
			<point x="622" y="143"/>
			<point x="396" y="379"/>
		</contour>
		<contour>
			<point x="887" y="743" type="curve"/>
			<point x="732" y="778" type="line"/>
			<point x="646" y="372"/>
			<point x="414" y="126"/>
			<point x="33" y="36" type="curve"/>
			<point x="64" y="3"/>
			<point x="115" y="-64"/>
			<point x="133" y="-99" type="curve"/>
			<point x="535" y="18"/>
			<point x="784" y="297"/>
		</contour>
		<contour>
			<point x="490" y="745" type="curve"/>
			<point x="378" y="674" type="line"/>
			<point x="427" y="616"/>
			<point x="487" y="537"/>
			<point x="511" y="486" type="curve"/>
			<point x="631" y="565" type="line"/>
			<point x="603" y="617"/>
			<point x="540" y="691"/>
		</contour>
	</outline>
</glyph>
<glyph name="uni500D.HK" format="2">
	<advance width="1000" height="1000"/>
	<note>
		cid10264
	</note>
	<outline>
		<contour>
			<point x="959" y="689" type="line"/>
			<point x="342" y="689" type="line"/>
			<point x="342" y="569" type="line"/>
			<point x="959" y="569" type="line"/>
		</contour>
		<contour>
			<point x="839" y="69" type="line"/>
			<point x="456" y="69" type="line"/>
			<point x="456" y="-55" type="line"/>
			<point x="839" y="-55" type="line"/>
		</contour>
		<contour>
			<point x="979" y="443" type="line"/>
			<point x="308" y="443" type="line"/>
			<point x="308" y="323" type="line"/>
			<point x="979" y="323" type="line"/>
		</contour>
		<contour>
			<point x="542" y="590" type="curve"/>
			<point x="416" y="561" type="line"/>
			<point x="434" y="515"/>
			<point x="450" y="454"/>
			<point x="453" y="417" type="curve"/>
			<point x="587" y="450" type="line"/>
			<point x="582" y="489"/>
			<point x="563" y="547"/>
		</contour>
		<contour>
			<point x="880" y="561" type="curve"/>
			<point x="735" y="585" type="line"/>
			<point x="727" y="543"/>
			<point x="710" y="487"/>
			<point x="695" y="448" type="curve"/>
			<point x="823" y="424" type="line"/>
			<point x="839" y="458"/>
			<point x="858" y="506"/>
		</contour>
		<contour>
			<point x="925" y="287" type="line"/>
			<point x="384" y="287" type="line"/>
			<point x="384" y="-94" type="line"/>
			<point x="526" y="-94" type="line"/>
			<point x="526" y="166" type="line"/>
			<point x="776" y="166" type="line"/>
			<point x="776" y="-90" type="line"/>
			<point x="925" y="-90" type="line"/>
		</contour>
		<contour>
			<point x="359" y="808" type="curve"/>
			<point x="222" y="851" type="line"/>
			<point x="174" y="713"/>
			<point x="91" y="575"/>
			<point x="5" y="488" type="curve"/>
			<point x="29" y="452"/>
			<point x="68" y="371"/>
			<point x="81" y="335" type="curve"/>
			<point x="190" y="451"/>
			<point x="295" y="637"/>
		</contour>
		<contour>
			<point x="268" y="702" type="line"/>
			<point x="130" y="564" type="line"/>
			<point x="130" y="-94" type="line"/>
			<point x="268" y="-94" type="line"/>
			<point x="268" y="701" type="line"/>
		</contour>
		<contour>
			<point x="858" y="839" type="line"/>
			<point x="443" y="839" type="line"/>
			<point x="443" y="725" type="line"/>
			<point x="858" y="725" type="line"/>
		</contour>
	</outline>
</glyph>
<glyph name="uni5256.HK" format="2">
	<advance width="1000" height="1000"/>
	<note>
		cid11250
	</note>
	<outline>
		<contour>
			<point x="728" y="742" type="line"/>
			<point x="591" y="742" type="line"/>
			<point x="591" y="170" type="line"/>
			<point x="728" y="170" type="line"/>
		</contour>
		<contour>
			<point x="943" y="74" type="curve" smooth="yes"/>
			<point x="943" y="834" type="line"/>
			<point x="802" y="834" type="line"/>
			<point x="802" y="75" type="line" smooth="yes"/>
			<point x="802" y="58"/>
			<point x="795" y="52"/>
			<point x="778" y="52" type="curve" smooth="yes"/>
			<point x="758" y="52"/>
			<point x="700" y="52"/>
			<point x="645" y="55" type="curve"/>
			<point x="665" y="14"/>
			<point x="686" y="-53"/>
			<point x="691" y="-94" type="curve"/>
			<point x="777" y="-94"/>
			<point x="842" y="-89"/>
			<point x="886" y="-65" type="curve" smooth="yes"/>
			<point x="930" y="-42"/>
			<point x="943" y="-3"/>
		</contour>
		<contour>
			<point x="546" y="693" type="line"/>
			<point x="50" y="693" type="line"/>
			<point x="50" y="578" type="line"/>
			<point x="546" y="578" type="line"/>
		</contour>
		<contour>
			<point x="561" y="445" type="line"/>
			<point x="25" y="445" type="line"/>
			<point x="25" y="330" type="line"/>
			<point x="561" y="330" type="line"/>
		</contour>
		<contour>
			<point x="478" y="839" type="line"/>
			<point x="118" y="839" type="line"/>
			<point x="118" y="733" type="line"/>
			<point x="478" y="733" type="line"/>
		</contour>
		<contour>
			<point x="224" y="596" type="curve"/>
			<point x="102" y="572" type="line"/>
			<point x="116" y="527"/>
			<point x="130" y="466"/>
			<point x="133" y="427" type="curve"/>
			<point x="260" y="456" type="line"/>
			<point x="255" y="494"/>
			<point x="240" y="552"/>
		</contour>
		<contour>
			<point x="508" y="571" type="curve"/>
			<point x="364" y="603" type="line"/>
			<point x="357" y="557"/>
			<point x="339" y="495"/>
			<point x="324" y="453" type="curve"/>
			<point x="448" y="422" type="line"/>
			<point x="465" y="459"/>
			<point x="485" y="513"/>
		</contour>
		<contour>
			<point x="441" y="69" type="line"/>
			<point x="148" y="69" type="line"/>
			<point x="148" y="-51" type="line"/>
			<point x="441" y="-51" type="line"/>
		</contour>
		<contour>
			<point x="509" y="286" type="line"/>
			<point x="80" y="286" type="line"/>
			<point x="80" y="-96" type="line"/>
			<point x="213" y="-96" type="line"/>
			<point x="213" y="166" type="line"/>
			<point x="369" y="166" type="line"/>
			<point x="369" y="-92" type="line"/>
			<point x="509" y="-92" type="line"/>
		</contour>
	</outline>
</glyph>
<glyph name="uni5485.HK" format="2">
	<advance width="1000" height="1000"/>
	<note>
		cid12135
	</note>
	<outline>
		<contour>
			<point x="747" y="77" type="line"/>
			<point x="251" y="77" type="line"/>
			<point x="251" y="-56" type="line"/>
			<point x="747" y="-56" type="line"/>
		</contour>
		<contour>
			<point x="842" y="302" type="line"/>
			<point x="164" y="302" type="line"/>
			<point x="164" y="-95" type="line"/>
			<point x="312" y="-95" type="line"/>
			<point x="312" y="169" type="line"/>
			<point x="686" y="169" type="line"/>
			<point x="686" y="-87" type="line"/>
			<point x="842" y="-87" type="line"/>
		</contour>
		<contour>
			<point x="914" y="680" type="line"/>
			<point x="99" y="680" type="line"/>
			<point x="99" y="558" type="line"/>
			<point x="914" y="558" type="line"/>
		</contour>
		<contour>
			<point x="781" y="830" type="line"/>
			<point x="227" y="830" type="line"/>
			<point x="227" y="715" type="line"/>
			<point x="781" y="715" type="line"/>
		</contour>
		<contour>
			<point x="963" y="465" type="line"/>
			<point x="40" y="465" type="line"/>
			<point x="40" y="337" type="line"/>
			<point x="963" y="337" type="line"/>
		</contour>
		<contour>
			<point x="793" y="551" type="curve"/>
			<point x="628" y="584" type="line"/>
			<point x="620" y="547"/>
			<point x="606" y="503"/>
			<point x="591" y="471" type="curve"/>
			<point x="725" y="440" type="line"/>
			<point x="743" y="468"/>
			<point x="770" y="511"/>
		</contour>
		<contour>
			<point x="370" y="582" type="curve"/>
			<point x="231" y="553" type="line"/>
			<point x="249" y="515"/>
			<point x="262" y="471"/>
			<point x="266" y="437" type="curve"/>
			<point x="411" y="471" type="line"/>
			<point x="405" y="505"/>
			<point x="389" y="548"/>
		</contour>
	</outline>
</glyph>
<glyph name="uni5A44.HK" format="2">
	<advance width="1000" height="1000"/>
	<note>
		cid14707
	</note>
	<outline>
		<contour>
			<point x="943" y="694" type="line"/>
			<point x="420" y="694" type="line"/>
			<point x="420" y="577" type="line"/>
			<point x="943" y="577" type="line"/>
		</contour>
		<contour>
			<point x="847" y="59" type="line"/>
			<point x="491" y="59" type="line"/>
			<point x="491" y="-58" type="line"/>
			<point x="847" y="-58" type="line"/>
		</contour>
		<contour>
			<point x="975" y="446" type="line"/>
			<point x="385" y="446" type="line"/>
			<point x="385" y="328" type="line"/>
			<point x="975" y="328" type="line"/>
		</contour>
		<contour>
			<point x="592" y="595" type="curve"/>
			<point x="469" y="564" type="line"/>
			<point x="487" y="519"/>
			<point x="501" y="466"/>
			<point x="505" y="427" type="curve"/>
			<point x="636" y="462" type="line"/>
			<point x="630" y="500"/>
			<point x="614" y="551"/>
		</contour>
		<contour>
			<point x="898" y="570" type="curve"/>
			<point x="752" y="594" type="line"/>
			<point x="744" y="550"/>
			<point x="730" y="497"/>
			<point x="715" y="458" type="curve"/>
			<point x="841" y="434" type="line"/>
			<point x="858" y="469"/>
			<point x="880" y="522"/>
		</contour>
		<contour>
			<point x="914" y="285" type="line"/>
			<point x="447" y="285" type="line"/>
			<point x="447" y="-96" type="line"/>
			<point x="582" y="-96" type="line"/>
			<point x="582" y="167" type="line"/>
			<point x="772" y="167" type="line"/>
			<point x="772" y="-92" type="line"/>
			<point x="914" y="-92" type="line"/>
		</contour>
		<contour>
			<point x="315" y="660" type="line"/>
			<point x="26" y="660" type="line"/>
			<point x="26" y="529" type="line"/>
			<point x="315" y="529" type="line"/>
		</contour>
		<contour>
			<point x="271" y="842" type="curve"/>
			<point x="133" y="855" type="line"/>
			<point x="109" y="654"/>
			<point x="65" y="399"/>
			<point x="27" y="241" type="curve"/>
			<point x="142" y="172" type="line"/>
			<point x="187" y="361"/>
			<point x="237" y="624"/>
		</contour>
		<contour>
			<point x="159" y="352" type="curve"/>
			<point x="75" y="256" type="line"/>
			<point x="161" y="176"/>
			<point x="273" y="64"/>
			<point x="319" y="-12" type="curve"/>
			<point x="412" y="99" type="line"/>
			<point x="361" y="172"/>
			<point x="244" y="278"/>
		</contour>
		<contour>
			<point x="292" y="660" type="line"/>
			<point x="269" y="660" type="line"/>
			<point x="269" y="635" type="line"/>
			<point x="256" y="332"/>
			<point x="184" y="106"/>
			<point x="25" y="16" type="curve"/>
			<point x="53" y="-9"/>
			<point x="89" y="-60"/>
			<point x="108" y="-94" type="curve"/>
			<point x="300" y="35"/>
			<point x="380" y="261"/>
			<point x="396" y="651" type="curve"/>
			<point x="315" y="662" type="line"/>
		</contour>
		<contour>
			<point x="862" y="843" type="line"/>
			<point x="501" y="843" type="line"/>
			<point x="501" y="736" type="line"/>
			<point x="862" y="736" type="line"/>
		</contour>
	</outline>
</glyph>
<glyph name="uni5AFA.HK" format="2">
	<advance width="1000" height="1000"/>
	<note>
		cid15156
	</note>
	<outline>
		<contour>
			<point x="728" y="416" type="line"/>
			<point x="583" y="416" type="line"/>
			<point x="583" y="326" type="line"/>
			<point x="728" y="326" type="line"/>
		</contour>
		<contour>
			<point x="668" y="296" type="line"/>
			<point x="583" y="296" type="line"/>
			<point x="583" y="213" type="line"/>
			<point x="668" y="213" type="line"/>
		</contour>
		<contour>
			<point x="668" y="182" type="line"/>
			<point x="583" y="182" type="line"/>
			<point x="583" y="99" type="line"/>
			<point x="668" y="99" type="line"/>
		</contour>
		<contour>
			<point x="776" y="66" type="curve" smooth="yes"/>
			<point x="776" y="416" type="line"/>
			<point x="680" y="416" type="line"/>
			<point x="680" y="68" type="line" smooth="yes"/>
			<point x="680" y="61"/>
			<point x="678" y="58"/>
			<point x="671" y="58" type="curve" smooth="yes"/>
			<point x="665" y="58"/>
			<point x="648" y="58"/>
			<point x="631" y="59" type="curve"/>
			<point x="643" y="32"/>
			<point x="655" y="-10"/>
			<point x="657" y="-38" type="curve"/>
			<point x="694" y="-38"/>
			<point x="723" y="-36"/>
			<point x="747" y="-19" type="curve" smooth="yes"/>
			<point x="771" y="-3"/>
			<point x="776" y="25"/>
		</contour>
		<contour>
			<point x="627" y="225" type="curve" smooth="yes"/>
			<point x="627" y="416" type="line"/>
			<point x="532" y="416" type="line"/>
			<point x="532" y="226" type="line" smooth="yes"/>
			<point x="532" y="160"/>
			<point x="530" y="81"/>
			<point x="493" y="22" type="curve"/>
			<point x="514" y="11"/>
			<point x="555" y="-23"/>
			<point x="571" y="-40" type="curve"/>
			<point x="619" y="30"/>
			<point x="627" y="141"/>
		</contour>
		<contour>
			<point x="490" y="819" type="line"/>
			<point x="365" y="819" type="line"/>
			<point x="365" y="-95" type="line"/>
			<point x="490" y="-95" type="line"/>
		</contour>
		<contour>
			<point x="637" y="819" type="line"/>
			<point x="429" y="819" type="line"/>
			<point x="429" y="716" type="line"/>
			<point x="529" y="716" type="line"/>
			<point x="529" y="565" type="line"/>
			<point x="429" y="565" type="line"/>
			<point x="429" y="462" type="line"/>
			<point x="637" y="462" type="line"/>
		</contour>
		<contour>
			<point x="573" y="688" type="line"/>
			<point x="424" y="688" type="line"/>
			<point x="424" y="594" type="line"/>
			<point x="573" y="594" type="line"/>
		</contour>
		<contour>
			<point x="885" y="688" type="line"/>
			<point x="736" y="688" type="line"/>
			<point x="736" y="594" type="line"/>
			<point x="885" y="594" type="line"/>
		</contour>
		<contour>
			<point x="878" y="716" type="line"/>
			<point x="878" y="819" type="line"/>
			<point x="669" y="819" type="line"/>
			<point x="669" y="462" type="line"/>
			<point x="878" y="462" type="line"/>
			<point x="878" y="565" type="line"/>
			<point x="778" y="565" type="line"/>
			<point x="778" y="716" type="line"/>
		</contour>
		<contour>
			<point x="946" y="55" type="curve" smooth="yes"/>
			<point x="946" y="819" type="line"/>
			<point x="819" y="819" type="line"/>
			<point x="819" y="58" type="line" smooth="yes"/>
			<point x="819" y="46"/>
			<point x="815" y="42"/>
			<point x="805" y="42" type="curve" smooth="yes"/>
			<point x="794" y="42"/>
			<point x="763" y="41"/>
			<point x="734" y="43" type="curve"/>
			<point x="753" y="8"/>
			<point x="772" y="-57"/>
			<point x="776" y="-95" type="curve"/>
			<point x="832" y="-95"/>
			<point x="872" y="-90"/>
			<point x="905" y="-67" type="curve" smooth="yes"/>
			<point x="939" y="-43"/>
			<point x="946" y="-2"/>
		</contour>
		<contour>
			<point x="270" y="660" type="line"/>
			<point x="26" y="660" type="line"/>
			<point x="26" y="533" type="line"/>
			<point x="270" y="533" type="line"/>
		</contour>
		<contour>
			<point x="230" y="846" type="curve"/>
			<point x="106" y="855" type="line"/>
			<point x="90" y="653"/>
			<point x="56" y="391"/>
			<point x="26" y="232" type="curve"/>
			<point x="129" y="167" type="line"/>
			<point x="166" y="357"/>
			<point x="205" y="627"/>
		</contour>
		<contour>
			<point x="151" y="353" type="curve"/>
			<point x="74" y="260" type="line"/>
			<point x="154" y="172"/>
			<point x="253" y="52"/>
			<point x="293" y="-29" type="curve"/>
			<point x="379" y="79" type="line"/>
			<point x="337" y="157"/>
			<point x="232" y="270"/>
		</contour>
		<contour>
			<point x="253" y="660" type="line"/>
			<point x="231" y="660" type="line"/>
			<point x="231" y="637" type="line"/>
			<point x="223" y="325"/>
			<point x="166" y="95"/>
			<point x="24" y="4" type="curve"/>
			<point x="51" y="-20"/>
			<point x="84" y="-66"/>
			<point x="101" y="-98" type="curve"/>
			<point x="275" y="32"/>
			<point x="338" y="259"/>
			<point x="348" y="655" type="curve"/>
			<point x="274" y="662" type="line"/>
		</contour>
	</outline>
</glyph>
<glyph name="uni611B.HK" format="2">
	<advance width="1000" height="1000"/>
	<note>
		cid18049
	</note>
	<outline>
		<contour>
			<point x="935" y="623" type="line"/>
			<point x="67" y="623" type="line"/>
			<point x="67" y="434" type="line"/>
			<point x="204" y="434" type="line"/>
			<point x="204" y="514" type="line"/>
			<point x="791" y="514" type="line"/>
			<point x="791" y="416" type="line"/>
			<point x="935" y="416" type="line"/>
		</contour>
		<contour>
			<point x="739" y="502" type="curve"/>
			<point x="643" y="433" type="line"/>
			<point x="701" y="387"/>
			<point x="768" y="319"/>
			<point x="796" y="272" type="curve"/>
			<point x="899" y="349" type="line"/>
			<point x="868" y="397"/>
			<point x="798" y="460"/>
		</contour>
		<contour>
			<point x="469" y="566" type="curve"/>
			<point x="401" y="494" type="line"/>
			<point x="451" y="473"/>
			<point x="512" y="436"/>
			<point x="541" y="409" type="curve"/>
			<point x="613" y="488" type="line"/>
			<point x="581" y="515"/>
			<point x="518" y="548"/>
		</contour>
		<contour>
			<point x="684" y="265" type="line"/>
			<point x="656" y="265" type="line"/>
			<point x="656" y="245" type="line"/>
			<point x="569" y="97"/>
			<point x="328" y="37"/>
			<point x="46" y="21" type="curve"/>
			<point x="72" y="-7"/>
			<point x="108" y="-65"/>
			<point x="121" y="-98" type="curve"/>
			<point x="412" y="-68"/>
			<point x="675" y="11"/>
			<point x="798" y="212" type="curve"/>
			<point x="707" y="269" type="line"/>
		</contour>
		<contour>
			<point x="359" y="199" type="curve"/>
			<point x="246" y="156" type="line"/>
			<point x="385" y="-3"/>
			<point x="600" y="-74"/>
			<point x="882" y="-96" type="curve"/>
			<point x="900" y="-58"/>
			<point x="935" y="2"/>
			<point x="965" y="33" type="curve"/>
			<point x="692" y="43"/>
			<point x="470" y="91"/>
		</contour>
		<contour>
			<point x="526" y="301" type="curve"/>
			<point x="401" y="344" type="line"/>
			<point x="335" y="262"/>
			<point x="205" y="197"/>
			<point x="72" y="161" type="curve"/>
			<point x="100" y="139"/>
			<point x="147" y="91"/>
			<point x="169" y="66" type="curve"/>
			<point x="300" y="114"/>
			<point x="442" y="195"/>
		</contour>
		<contour>
			<point x="446" y="424" type="curve" smooth="yes"/>
			<point x="446" y="478" type="line"/>
			<point x="313" y="478" type="line"/>
			<point x="313" y="423" type="line" smooth="yes"/>
			<point x="313" y="329"/>
			<point x="341" y="300"/>
			<point x="462" y="300" type="curve" smooth="yes"/>
			<point x="487" y="300"/>
			<point x="553" y="300"/>
			<point x="579" y="300" type="curve" smooth="yes"/>
			<point x="659" y="300"/>
			<point x="692" y="321"/>
			<point x="704" y="397" type="curve"/>
			<point x="670" y="403"/>
			<point x="620" y="419"/>
			<point x="595" y="434" type="curve"/>
			<point x="591" y="404"/>
			<point x="585" y="398"/>
			<point x="563" y="398" type="curve" smooth="yes"/>
			<point x="546" y="398"/>
			<point x="495" y="398"/>
			<point x="482" y="398" type="curve" smooth="yes"/>
			<point x="452" y="398"/>
			<point x="446" y="400"/>
		</contour>
		<contour>
			<point x="333" y="433" type="curve"/>
			<point x="225" y="481" type="line"/>
			<point x="199" y="428"/>
			<point x="152" y="375"/>
			<point x="96" y="344" type="curve"/>
			<point x="195" y="264" type="line"/>
			<point x="260" y="307"/>
			<point x="303" y="370"/>
		</contour>
		<contour>
			<point x="689" y="265" type="line"/>
			<point x="387" y="265" type="line"/>
			<point x="290" y="168" type="line"/>
			<point x="689" y="168" type="line"/>
		</contour>
		<contour>
			<point x="338" y="793" type="curve"/>
			<point x="207" y="834" type="line"/>
			<point x="182" y="767"/>
			<point x="136" y="696"/>
			<point x="88" y="652" type="curve"/>
			<point x="123" y="632"/>
			<point x="174" y="599"/>
			<point x="204" y="577" type="curve"/>
			<point x="253" y="627"/>
			<point x="304" y="710"/>
		</contour>
		<contour>
			<point x="872" y="761" type="curve"/>
			<point x="770" y="858" type="line"/>
			<point x="635" y="826"/>
			<point x="416" y="803"/>
			<point x="219" y="794" type="curve"/>
			<point x="233" y="765"/>
			<point x="247" y="722"/>
			<point x="251" y="690" type="curve"/>
			<point x="456" y="698"/>
			<point x="688" y="719"/>
		</contour>
		<contour>
			<point x="528" y="728" type="curve"/>
			<point x="404" y="684" type="line"/>
			<point x="424" y="651"/>
			<point x="442" y="613"/>
			<point x="449" y="586" type="curve"/>
			<point x="581" y="634" type="line"/>
			<point x="571" y="661"/>
			<point x="551" y="697"/>
		</contour>
		<contour>
			<point x="803" y="765" type="curve"/>
			<point x="682" y="712" type="line"/>
			<point x="721" y="669"/>
			<point x="755" y="618"/>
			<point x="770" y="579" type="curve"/>
			<point x="901" y="637" type="line"/>
			<point x="885" y="671"/>
			<point x="848" y="720"/>
		</contour>
	</outline>
</glyph>
<glyph name="uni6123.HK" format="2">
	<advance width="1000"/>
	<outline>
		<contour>
			<point x="274" y="855" type="line"/>
			<point x="142" y="855" type="line"/>
			<point x="142" y="-95" type="line"/>
			<point x="274" y="-95" type="line"/>
		</contour>
		<contour>
			<point x="151" y="641" type="curve"/>
			<point x="50" y="654" type="line"/>
			<point x="47" y="568"/>
			<point x="33" y="455"/>
			<point x="9" y="389" type="curve"/>
			<point x="112" y="350" type="line"/>
			<point x="137" y="429"/>
			<point x="151" y="549"/>
		</contour>
		<contour>
			<point x="333" y="683" type="curve"/>
			<point x="242" y="650" type="line"/>
			<point x="265" y="581"/>
			<point x="293" y="489"/>
			<point x="304" y="434" type="curve"/>
			<point x="402" y="474" type="line"/>
			<point x="389" y="527"/>
			<point x="358" y="616"/>
		</contour>
		<contour>
			<point x="712" y="491" type="line"/>
			<point x="571" y="491" type="line"/>
			<point x="571" y="351" type="line"/>
			<point x="712" y="351" type="line"/>
		</contour>
		<contour>
			<point x="958" y="416" type="line"/>
			<point x="350" y="416" type="line"/>
			<point x="350" y="292" type="line"/>
			<point x="958" y="292" type="line"/>
		</contour>
		<contour>
			<point x="812" y="248" type="line"/>
			<point x="559" y="248" type="line"/>
			<point x="559" y="130" type="line"/>
			<point x="812" y="130" type="line"/>
		</contour>
		<contour>
			<point x="915" y="248" type="curve"/>
			<point x="777" y="248" type="line"/>
			<point x="777" y="231" type="line"/>
			<point x="771" y="109"/>
			<point x="763" y="57"/>
			<point x="749" y="43" type="curve" smooth="yes"/>
			<point x="739" y="35"/>
			<point x="729" y="33"/>
			<point x="714" y="33" type="curve" smooth="yes"/>
			<point x="694" y="33"/>
			<point x="655" y="34"/>
			<point x="615" y="38" type="curve"/>
			<point x="638" y="2"/>
			<point x="654" y="-52"/>
			<point x="657" y="-93" type="curve"/>
			<point x="707" y="-94"/>
			<point x="754" y="-93"/>
			<point x="782" y="-89" type="curve" smooth="yes"/>
			<point x="816" y="-85"/>
			<point x="841" y="-76"/>
			<point x="865" y="-49" type="curve" smooth="yes"/>
			<point x="892" y="-19"/>
			<point x="903" y="53"/>
			<point x="912" y="198" type="curve" smooth="yes"/>
			<point x="914" y="215"/>
			<point x="915" y="248"/>
		</contour>
		<contour>
			<point x="634" y="764" type="curve"/>
			<point x="534" y="764" type="line"/>
			<point x="534" y="691"/>
			<point x="508" y="653"/>
			<point x="449" y="639" type="curve"/>
			<point x="470" y="622"/>
			<point x="497" y="587"/>
			<point x="508" y="563" type="curve"/>
			<point x="596" y="598"/>
			<point x="634" y="659"/>
		</contour>
		<contour>
			<point x="761" y="701" type="curve" smooth="yes"/>
			<point x="761" y="764" type="line"/>
			<point x="658" y="764" type="line"/>
			<point x="658" y="701" type="line" smooth="yes"/>
			<point x="658" y="619"/>
			<point x="674" y="593"/>
			<point x="756" y="593" type="curve" smooth="yes"/>
			<point x="771" y="593"/>
			<point x="810" y="593"/>
			<point x="826" y="593" type="curve" smooth="yes"/>
			<point x="877" y="593"/>
			<point x="904" y="609"/>
			<point x="915" y="661" type="curve"/>
			<point x="887" y="666"/>
			<point x="846" y="681"/>
			<point x="828" y="694" type="curve"/>
			<point x="825" y="683"/>
			<point x="822" y="680"/>
			<point x="811" y="680" type="curve" smooth="yes"/>
			<point x="806" y="680"/>
			<point x="778" y="680"/>
			<point x="773" y="680" type="curve" smooth="yes"/>
			<point x="762" y="680"/>
			<point x="761" y="682"/>
		</contour>
		<contour>
			<point x="472" y="571" type="line"/>
			<point x="472" y="713" type="line"/>
			<point x="823" y="713" type="line"/>
			<point x="823" y="571" type="line"/>
		</contour>
		<contour>
			<point x="941" y="813" type="line"/>
			<point x="360" y="813" type="line"/>
			<point x="360" y="471" type="line"/>
			<point x="941" y="471" type="line"/>
		</contour>
		<contour>
			<point x="658" y="295" type="curve" smooth="yes"/>
			<point x="658" y="362" type="line"/>
			<point x="518" y="362" type="line"/>
			<point x="518" y="300" type="line" smooth="yes"/>
			<point x="518" y="223"/>
			<point x="495" y="88"/>
			<point x="316" y="5" type="curve"/>
			<point x="346" y="-19"/>
			<point x="393" y="-69"/>
			<point x="412" y="-99" type="curve"/>
			<point x="626" y="8"/>
			<point x="658" y="191"/>
		</contour>
	</outline>
</glyph>
<glyph name="uni6703.inherited" format="2">
	<advance width="1000" height="1000"/>
	<note>
		cid20684
	</note>
	<outline>
		<contour>
			<point x="265" y="366" type="line"/>
			<point x="265" y="478" type="line"/>
			<point x="728" y="478" type="line"/>
			<point x="728" y="366" type="line"/>
		</contour>
		<contour>
			<point x="856" y="565" type="line"/>
			<point x="145" y="565" type="line"/>
			<point x="145" y="280" type="line"/>
			<point x="856" y="280" type="line"/>
		</contour>
		<contour>
			<point x="677" y="682" type="line"/>
			<point x="321" y="682" type="line"/>
			<point x="321" y="590" type="line"/>
			<point x="677" y="590" type="line"/>
		</contour>
		<contour>
			<point x="552" y="536" type="line"/>
			<point x="436" y="536" type="line"/>
			<point x="436" y="324" type="line"/>
			<point x="552" y="324" type="line"/>
		</contour>
		<contour>
			<point x="494" y="744" type="curve"/>
			<point x="588" y="658"/>
			<point x="763" y="568"/>
			<point x="898" y="524" type="curve"/>
			<point x="920" y="562"/>
			<point x="951" y="611"/>
			<point x="982" y="644" type="curve"/>
			<point x="827" y="679"/>
			<point x="673" y="750"/>
			<point x="557" y="855" type="curve"/>
			<point x="420" y="855" type="line"/>
			<point x="338" y="770"/>
			<point x="177" y="680"/>
			<point x="16" y="636" type="curve"/>
			<point x="42" y="607"/>
			<point x="75" y="554"/>
			<point x="91" y="522" type="curve"/>
			<point x="244" y="573"/>
			<point x="405" y="660"/>
		</contour>
		<contour>
			<point x="384" y="486" type="curve"/>
			<point x="286" y="461" type="line"/>
			<point x="298" y="427"/>
			<point x="307" y="382"/>
			<point x="309" y="353" type="curve"/>
			<point x="413" y="382" type="line"/>
			<point x="410" y="410"/>
			<point x="398" y="453"/>
		</contour>
		<contour>
			<point x="719" y="464" type="curve"/>
			<point x="600" y="490" type="line"/>
			<point x="594" y="458"/>
			<point x="580" y="411"/>
			<point x="568" y="379" type="curve"/>
			<point x="666" y="354" type="line"/>
			<point x="680" y="381"/>
			<point x="698" y="421"/>
		</contour>
		<contour>
			<point x="805" y="256" type="line"/>
			<point x="198" y="256" type="line"/>
			<point x="198" y="-95" type="line"/>
			<point x="341" y="-95" type="line"/>
			<point x="341" y="164" type="line"/>
			<point x="655" y="164" type="line"/>
			<point x="655" y="-91" type="line"/>
			<point x="805" y="-91" type="line"/>
		</contour>
		<contour>
			<point x="635" y="139" type="line"/>
			<point x="279" y="139" type="line"/>
			<point x="279" y="47" type="line"/>
			<point x="635" y="47" type="line"/>
		</contour>
		<contour>
			<point x="716" y="21" type="line"/>
			<point x="279" y="21" type="line"/>
			<point x="279" y="-71" type="line"/>
			<point x="716" y="-71" type="line"/>
		</contour>
	</outline>
</glyph>
<glyph name="uni68D3.HK" format="2">
	<advance width="1000" height="1000"/>
	<note>
		cid21421
	</note>
	<outline>
		<contour>
			<point x="396" y="653" type="line"/>
			<point x="35" y="653" type="line"/>
			<point x="35" y="519" type="line"/>
			<point x="396" y="519" type="line"/>
		</contour>
		<contour>
			<point x="294" y="855" type="line"/>
			<point x="157" y="855" type="line"/>
			<point x="157" y="-95" type="line"/>
			<point x="294" y="-95" type="line"/>
		</contour>
		<contour>
			<point x="232" y="527" type="curve"/>
			<point x="153" y="558" type="line"/>
			<point x="129" y="444"/>
			<point x="74" y="293"/>
			<point x="11" y="207" type="curve"/>
			<point x="32" y="171"/>
			<point x="63" y="112"/>
			<point x="76" y="72" type="curve"/>
			<point x="147" y="179"/>
			<point x="203" y="372"/>
		</contour>
		<contour>
			<point x="291" y="499" type="curve"/>
			<point x="227" y="437" type="line"/>
			<point x="257" y="382"/>
			<point x="310" y="271"/>
			<point x="334" y="205" type="curve"/>
			<point x="414" y="315" type="line"/>
			<point x="397" y="344"/>
			<point x="314" y="471"/>
		</contour>
		<contour>
			<point x="948" y="690" type="line"/>
			<point x="416" y="690" type="line"/>
			<point x="416" y="570" type="line"/>
			<point x="948" y="570" type="line"/>
		</contour>
		<contour>
			<point x="868" y="67" type="line"/>
			<point x="494" y="67" type="line"/>
			<point x="494" y="-58" type="line"/>
			<point x="868" y="-58" type="line"/>
		</contour>
		<contour>
			<point x="975" y="438" type="line"/>
			<point x="385" y="438" type="line"/>
			<point x="385" y="318" type="line"/>
			<point x="975" y="318" type="line"/>
		</contour>
		<contour>
			<point x="872" y="839" type="line"/>
			<point x="492" y="839" type="line"/>
			<point x="492" y="724" type="line"/>
			<point x="872" y="724" type="line"/>
		</contour>
		<contour>
			<point x="922" y="284" type="line"/>
			<point x="446" y="284" type="line"/>
			<point x="446" y="-95" type="line"/>
			<point x="583" y="-95" type="line"/>
			<point x="583" y="159" type="line"/>
			<point x="777" y="159" type="line"/>
			<point x="777" y="-91" type="line"/>
			<point x="922" y="-91" type="line"/>
		</contour>
		<contour>
			<point x="907" y="560" type="curve"/>
			<point x="754" y="593" type="line"/>
			<point x="749" y="548"/>
			<point x="735" y="489"/>
			<point x="723" y="445" type="curve"/>
			<point x="838" y="413" type="line"/>
			<point x="856" y="449"/>
			<point x="880" y="504"/>
		</contour>
		<contour>
			<point x="602" y="589" type="curve"/>
			<point x="474" y="561" type="line"/>
			<point x="491" y="515"/>
			<point x="506" y="453"/>
			<point x="508" y="414" type="curve"/>
			<point x="644" y="445" type="line"/>
			<point x="639" y="484"/>
			<point x="622" y="544"/>
		</contour>
	</outline>
</glyph>
<glyph name="uni6B95.HK" format="2">
	<advance width="1000" height="1000"/>
	<note>
		cid22712
	</note>
	<outline>
		<contour>
			<point x="894" y="839" type="line"/>
			<point x="511" y="839" type="line"/>
			<point x="511" y="725" type="line"/>
			<point x="894" y="725" type="line"/>
		</contour>
		<contour>
			<point x="912" y="565" type="curve"/>
			<point x="769" y="593" type="line"/>
			<point x="760" y="545"/>
			<point x="746" y="491"/>
			<point x="731" y="452" type="curve"/>
			<point x="848" y="425" type="line"/>
			<point x="866" y="459"/>
			<point x="890" y="513"/>
		</contour>
		<contour>
			<point x="614" y="588" type="curve"/>
			<point x="494" y="562" type="line"/>
			<point x="511" y="515"/>
			<point x="522" y="461"/>
			<point x="524" y="422" type="curve"/>
			<point x="652" y="452" type="line"/>
			<point x="648" y="492"/>
			<point x="633" y="544"/>
		</contour>
		<contour>
			<point x="928" y="288" type="line"/>
			<point x="466" y="288" type="line"/>
			<point x="466" y="-95" type="line"/>
			<point x="602" y="-95" type="line"/>
			<point x="602" y="166" type="line"/>
			<point x="785" y="166" type="line"/>
			<point x="785" y="-91" type="line"/>
			<point x="928" y="-91" type="line"/>
		</contour>
		<contour>
			<point x="858" y="63" type="line"/>
			<point x="533" y="63" type="line"/>
			<point x="533" y="-61" type="line"/>
			<point x="858" y="-61" type="line"/>
		</contour>
		<contour>
			<point x="976" y="446" type="line"/>
			<point x="422" y="446" type="line"/>
			<point x="422" y="322" type="line"/>
			<point x="976" y="322" type="line"/>
		</contour>
		<contour>
			<point x="957" y="691" type="line"/>
			<point x="448" y="691" type="line"/>
			<point x="448" y="569" type="line"/>
			<point x="957" y="569" type="line"/>
		</contour>
		<contour>
			<point x="432" y="804" type="line"/>
			<point x="44" y="804" type="line"/>
			<point x="44" y="673" type="line"/>
			<point x="432" y="673" type="line"/>
		</contour>
		<contour>
			<point x="343" y="608" type="line"/>
			<point x="180" y="608" type="line"/>
			<point x="180" y="479" type="line"/>
			<point x="343" y="479" type="line"/>
		</contour>
		<contour>
			<point x="190" y="424" type="curve"/>
			<point x="116" y="320" type="line"/>
			<point x="164" y="282"/>
			<point x="224" y="226"/>
			<point x="248" y="186" type="curve"/>
			<point x="327" y="302" type="line"/>
			<point x="301" y="339"/>
			<point x="238" y="390"/>
		</contour>
		<contour>
			<point x="289" y="742" type="curve"/>
			<point x="152" y="764" type="line"/>
			<point x="130" y="594"/>
			<point x="84" y="429"/>
			<point x="7" y="330" type="curve"/>
			<point x="37" y="309"/>
			<point x="92" y="260"/>
			<point x="114" y="235" type="curve"/>
			<point x="201" y="354"/>
			<point x="259" y="545"/>
		</contour>
		<contour>
			<point x="330" y="608" type="line"/>
			<point x="306" y="608" type="line"/>
			<point x="306" y="580" type="line"/>
			<point x="282" y="306"/>
			<point x="201" y="108"/>
			<point x="60" y="5" type="curve"/>
			<point x="89" y="-14"/>
			<point x="138" y="-64"/>
			<point x="159" y="-94" type="curve"/>
			<point x="307" y="23"/>
			<point x="403" y="259"/>
			<point x="436" y="589" type="curve"/>
			<point x="353" y="612" type="line"/>
		</contour>
	</outline>
</glyph>
<glyph name="uni7119.HK" format="2">
	<advance width="1000" height="1000"/>
	<note>
		cid25159
	</note>
	<outline>
		<contour>
			<point x="961" y="689" type="line"/>
			<point x="425" y="689" type="line"/>
			<point x="425" y="571" type="line"/>
			<point x="961" y="571" type="line"/>
		</contour>
		<contour>
			<point x="979" y="448" type="line"/>
			<point x="402" y="448" type="line"/>
			<point x="402" y="328" type="line"/>
			<point x="979" y="328" type="line"/>
		</contour>
		<contour>
			<point x="876" y="839" type="line"/>
			<point x="511" y="839" type="line"/>
			<point x="511" y="727" type="line"/>
			<point x="876" y="727" type="line"/>
		</contour>
		<contour>
			<point x="604" y="592" type="curve"/>
			<point x="485" y="563" type="line"/>
			<point x="503" y="519"/>
			<point x="519" y="461"/>
			<point x="523" y="423" type="curve"/>
			<point x="648" y="456" type="line"/>
			<point x="642" y="494"/>
			<point x="624" y="550"/>
		</contour>
		<contour>
			<point x="901" y="565" type="curve"/>
			<point x="767" y="596" type="line"/>
			<point x="759" y="553"/>
			<point x="740" y="493"/>
			<point x="723" y="454" type="curve"/>
			<point x="837" y="425" type="line"/>
			<point x="856" y="460"/>
			<point x="880" y="514"/>
		</contour>
		<contour>
			<point x="855" y="66" type="line"/>
			<point x="530" y="66" type="line"/>
			<point x="530" y="-56" type="line"/>
			<point x="855" y="-56" type="line"/>
		</contour>
		<contour>
			<point x="936" y="290" type="line"/>
			<point x="459" y="290" type="line"/>
			<point x="459" y="-94" type="line"/>
			<point x="595" y="-94" type="line"/>
			<point x="595" y="168" type="line"/>
			<point x="793" y="168" type="line"/>
			<point x="793" y="-90" type="line"/>
			<point x="936" y="-90" type="line"/>
		</contour>
		<contour>
			<point x="306" y="500" type="curve" smooth="yes"/>
			<point x="306" y="839" type="line"/>
			<point x="172" y="839" type="line"/>
			<point x="172" y="501" type="line" smooth="yes"/>
			<point x="172" y="334"/>
			<point x="156" y="148"/>
			<point x="19" y="16" type="curve"/>
			<point x="50" y="-6"/>
			<point x="97" y="-57"/>
			<point x="118" y="-89" type="curve"/>
			<point x="287" y="70"/>
			<point x="306" y="295"/>
		</contour>
		<contour>
			<point x="157" y="627" type="curve"/>
			<point x="55" y="640" type="line"/>
			<point x="57" y="554"/>
			<point x="45" y="448"/>
			<point x="18" y="389" type="curve"/>
			<point x="119" y="347" type="line"/>
			<point x="151" y="420"/>
			<point x="162" y="532"/>
		</contour>
		<contour>
			<point x="453" y="636" type="curve"/>
			<point x="334" y="681" type="line"/>
			<point x="322" y="616"/>
			<point x="295" y="527"/>
			<point x="272" y="469" type="curve"/>
			<point x="357" y="431" type="line"/>
			<point x="385" y="483"/>
			<point x="418" y="565"/>
		</contour>
		<contour>
			<point x="285" y="313" type="curve"/>
			<point x="194" y="247" type="line"/>
			<point x="236" y="192"/>
			<point x="308" y="90"/>
			<point x="345" y="23" type="curve"/>
			<point x="445" y="123" type="line"/>
			<point x="420" y="153"/>
			<point x="318" y="282"/>
		</contour>
	</outline>
</glyph>
<glyph name="uni78B0.inherited" format="2">
	<advance width="1000" height="1000"/>
	<note>
		cid28570
	</note>
	<outline>
		<contour>
			<point x="391" y="794" type="line"/>
			<point x="39" y="794" type="line"/>
			<point x="39" y="670" type="line"/>
			<point x="391" y="670" type="line"/>
		</contour>
		<contour>
			<point x="381" y="490" type="line"/>
			<point x="151" y="490" type="line"/>
			<point x="151" y="368" type="line"/>
			<point x="260" y="368" type="line"/>
			<point x="260" y="144" type="line"/>
			<point x="151" y="144" type="line"/>
			<point x="151" y="22" type="line"/>
			<point x="381" y="22" type="line"/>
		</contour>
		<contour>
			<point x="267" y="715" type="curve"/>
			<point x="135" y="735" type="line"/>
			<point x="117" y="556"/>
			<point x="83" y="384"/>
			<point x="8" y="276" type="curve"/>
			<point x="32" y="244"/>
			<point x="69" y="172"/>
			<point x="82" y="139" type="curve"/>
			<point x="185" y="277"/>
			<point x="238" y="496"/>
		</contour>
		<contour>
			<point x="215" y="490" type="line"/>
			<point x="95" y="490" type="line"/>
			<point x="95" y="-55" type="line"/>
			<point x="215" y="-55" type="line"/>
		</contour>
		<contour>
			<point x="953" y="631" type="line"/>
			<point x="403" y="631" type="line"/>
			<point x="403" y="498" type="line"/>
			<point x="953" y="498" type="line"/>
		</contour>
		<contour>
			<point x="976" y="62" type="line"/>
			<point x="363" y="62" type="line"/>
			<point x="363" y="-69" type="line"/>
			<point x="976" y="-69" type="line"/>
		</contour>
		<contour>
			<point x="658" y="562" type="line"/>
			<point x="532" y="562" type="line"/>
			<point x="532" y="-14" type="line"/>
			<point x="658" y="-14" type="line"/>
		</contour>
		<contour>
			<point x="811" y="562" type="line"/>
			<point x="685" y="562" type="line"/>
			<point x="685" y="-14" type="line"/>
			<point x="811" y="-14" type="line"/>
		</contour>
		<contour>
			<point x="561" y="848" type="curve"/>
			<point x="441" y="812" type="line"/>
			<point x="470" y="748"/>
			<point x="496" y="664"/>
			<point x="501" y="611" type="curve"/>
			<point x="630" y="652" type="line"/>
			<point x="622" y="706"/>
			<point x="593" y="787"/>
		</contour>
		<contour>
			<point x="492" y="450" type="curve"/>
			<point x="387" y="423" type="line"/>
			<point x="414" y="321"/>
			<point x="432" y="191"/>
			<point x="432" y="112" type="curve"/>
			<point x="546" y="144" type="line"/>
			<point x="545" y="223"/>
			<point x="523" y="350"/>
		</contour>
		<contour>
			<point x="922" y="815" type="curve"/>
			<point x="775" y="856" type="line"/>
			<point x="761" y="792"/>
			<point x="732" y="708"/>
			<point x="706" y="651" type="curve"/>
			<point x="819" y="613" type="line"/>
			<point x="849" y="664"/>
			<point x="886" y="741"/>
		</contour>
		<contour>
			<point x="970" y="427" type="curve"/>
			<point x="842" y="464" type="line"/>
			<point x="834" y="368"/>
			<point x="813" y="236"/>
			<point x="791" y="150" type="curve"/>
			<point x="879" y="118" type="line"/>
			<point x="908" y="196"/>
			<point x="940" y="323"/>
		</contour>
	</outline>
</glyph>
<glyph name="uni7BF0.HK" format="2">
	<advance width="1000" height="1000"/>
	<note>
		cid30201
	</note>
	<outline>
		<contour>
			<point x="485" y="779" type="line"/>
			<point x="174" y="779" type="line"/>
			<point x="174" y="674" type="line"/>
			<point x="485" y="674" type="line"/>
		</contour>
		<contour>
			<point x="957" y="779" type="line"/>
			<point x="578" y="779" type="line"/>
			<point x="578" y="674" type="line"/>
			<point x="957" y="674" type="line"/>
		</contour>
		<contour>
			<point x="305" y="829" type="curve"/>
			<point x="170" y="865" type="line"/>
			<point x="137" y="779"/>
			<point x="78" y="690"/>
			<point x="13" y="635" type="curve"/>
			<point x="46" y="618"/>
			<point x="104" y="581"/>
			<point x="131" y="558" type="curve"/>
			<point x="194" y="622"/>
			<point x="263" y="727"/>
		</contour>
		<contour>
			<point x="704" y="831" type="curve"/>
			<point x="567" y="865" type="line"/>
			<point x="539" y="781"/>
			<point x="485" y="696"/>
			<point x="423" y="643" type="curve"/>
			<point x="456" y="626"/>
			<point x="514" y="588"/>
			<point x="541" y="565" type="curve"/>
			<point x="603" y="627"/>
			<point x="667" y="729"/>
		</contour>
		<contour>
			<point x="324" y="743" type="curve"/>
			<point x="207" y="698" type="line"/>
			<point x="230" y="663"/>
			<point x="256" y="614"/>
			<point x="266" y="583" type="curve"/>
			<point x="389" y="633" type="line"/>
			<point x="377" y="664"/>
			<point x="348" y="710"/>
		</contour>
		<contour>
			<point x="768" y="742" type="curve"/>
			<point x="644" y="697" type="line"/>
			<point x="671" y="662"/>
			<point x="703" y="613"/>
			<point x="715" y="582" type="curve"/>
			<point x="846" y="631" type="line"/>
			<point x="830" y="663"/>
			<point x="796" y="709"/>
		</contour>
		<contour>
			<point x="540" y="502" type="line"/>
			<point x="71" y="502" type="line"/>
			<point x="71" y="402" type="line"/>
			<point x="540" y="402" type="line"/>
		</contour>
		<contour>
			<point x="557" y="331" type="line"/>
			<point x="43" y="331" type="line"/>
			<point x="43" y="226" type="line"/>
			<point x="557" y="226" type="line"/>
		</contour>
		<contour>
			<point x="441" y="42" type="line"/>
			<point x="175" y="42" type="line"/>
			<point x="175" y="-63" type="line"/>
			<point x="441" y="-63" type="line"/>
		</contour>
		<contour>
			<point x="472" y="617" type="line"/>
			<point x="145" y="617" type="line"/>
			<point x="145" y="522" type="line"/>
			<point x="472" y="522" type="line"/>
		</contour>
		<contour>
			<point x="522" y="206" type="line"/>
			<point x="100" y="206" type="line"/>
			<point x="100" y="-95" type="line"/>
			<point x="229" y="-95" type="line"/>
			<point x="229" y="101" type="line"/>
			<point x="386" y="101" type="line"/>
			<point x="386" y="-83" type="line"/>
			<point x="522" y="-83" type="line"/>
		</contour>
		<contour>
			<point x="856" y="597" type="line"/>
			<point x="584" y="597" type="line"/>
			<point x="584" y="-96" type="line"/>
			<point x="721" y="-96" type="line"/>
			<point x="721" y="473" type="line"/>
			<point x="856" y="473" type="line"/>
		</contour>
		<contour>
			<point x="236" y="420" type="curve"/>
			<point x="122" y="399" type="line"/>
			<point x="134" y="371"/>
			<point x="144" y="338"/>
			<point x="147" y="310" type="curve"/>
			<point x="266" y="331" type="line"/>
			<point x="263" y="358"/>
			<point x="251" y="392"/>
		</contour>
		<contour>
			<point x="495" y="400" type="curve"/>
			<point x="371" y="422" type="line"/>
			<point x="360" y="388"/>
			<point x="347" y="353"/>
			<point x="337" y="331" type="curve"/>
			<point x="447" y="310" type="line"/>
			<point x="458" y="328"/>
			<point x="477" y="363"/>
		</contour>
		<contour>
			<point x="848" y="597" type="line"/>
			<point x="823" y="597" type="line"/>
			<point x="823" y="563" type="line"/>
			<point x="806" y="506"/>
			<point x="769" y="399"/>
			<point x="737" y="325" type="curve"/>
			<point x="804" y="265"/>
			<point x="822" y="210"/>
			<point x="822" y="171" type="curve" smooth="yes"/>
			<point x="822" y="147"/>
			<point x="817" y="131"/>
			<point x="804" y="124" type="curve" smooth="yes"/>
			<point x="796" y="119"/>
			<point x="785" y="117"/>
			<point x="773" y="117" type="curve" smooth="yes"/>
			<point x="760" y="117"/>
			<point x="744" y="117"/>
			<point x="725" y="119" type="curve"/>
			<point x="745" y="85"/>
			<point x="758" y="33"/>
			<point x="760" y="-2" type="curve"/>
			<point x="787" y="-4"/>
			<point x="816" y="-3"/>
			<point x="837" y="0" type="curve" smooth="yes"/>
			<point x="861" y="4"/>
			<point x="882" y="11"/>
			<point x="901" y="24" type="curve" smooth="yes"/>
			<point x="940" y="50"/>
			<point x="956" y="93"/>
			<point x="956" y="158" type="curve" smooth="yes"/>
			<point x="956" y="209"/>
			<point x="940" y="272"/>
			<point x="871" y="341" type="curve"/>
			<point x="903" y="403"/>
			<point x="938" y="479"/>
			<point x="968" y="548" type="curve"/>
			<point x="869" y="602" type="line"/>
		</contour>
	</outline>
</glyph>
<glyph name="uni7D00.HK" format="2">
	<advance width="1000" height="1000"/>
	<note>
		cid30804
	</note>
	<outline>
		<contour>
			<point x="931" y="800" type="line"/>
			<point x="472" y="800" type="line"/>
			<point x="472" y="663" type="line"/>
			<point x="785" y="663" type="line"/>
			<point x="785" y="305" type="line"/>
			<point x="931" y="305" type="line"/>
		</contour>
		<contour>
			<point x="849" y="488" type="line"/>
			<point x="564" y="488" type="line"/>
			<point x="564" y="353" type="line"/>
			<point x="849" y="353" type="line"/>
		</contour>
		<contour>
			<point x="638" y="96" type="curve" smooth="yes"/>
			<point x="638" y="603" type="line"/>
			<point x="492" y="603" type="line"/>
			<point x="492" y="95" type="line" smooth="yes"/>
			<point x="492" y="-50"/>
			<point x="535" y="-91"/>
			<point x="668" y="-91" type="curve" smooth="yes"/>
			<point x="695" y="-91"/>
			<point x="784" y="-91"/>
			<point x="813" y="-91" type="curve" smooth="yes"/>
			<point x="935" y="-91"/>
			<point x="974" y="-36"/>
			<point x="990" y="144" type="curve"/>
			<point x="951" y="154"/>
			<point x="888" y="178"/>
			<point x="856" y="202" type="curve"/>
			<point x="850" y="69"/>
			<point x="843" y="45"/>
			<point x="801" y="45" type="curve" smooth="yes"/>
			<point x="779" y="45"/>
			<point x="707" y="45"/>
			<point x="688" y="45" type="curve" smooth="yes"/>
			<point x="644" y="45"/>
			<point x="638" y="50"/>
		</contour>
		<contour>
			<point x="324" y="351" type="line"/>
			<point x="187" y="351" type="line"/>
			<point x="187" y="-95" type="line"/>
			<point x="324" y="-95" type="line"/>
		</contour>
		<contour>
			<point x="314" y="800" type="curve"/>
			<point x="182" y="854" type="line"/>
			<point x="157" y="782"/>
			<point x="111" y="686"/>
			<point x="72" y="624" type="curve"/>
			<point x="172" y="577" type="line"/>
			<point x="214" y="633"/>
			<point x="266" y="721"/>
		</contour>
		<contour>
			<point x="435" y="677" type="curve"/>
			<point x="312" y="737" type="line"/>
			<point x="255" y="628"/>
			<point x="156" y="485"/>
			<point x="74" y="394" type="curve"/>
			<point x="161" y="343" type="line"/>
			<point x="245" y="427"/>
			<point x="352" y="562"/>
		</contour>
		<contour>
			<point x="85" y="695" type="curve"/>
			<point x="20" y="594" type="line"/>
			<point x="72" y="548"/>
			<point x="136" y="481"/>
			<point x="161" y="434" type="curve"/>
			<point x="232" y="548" type="line"/>
			<point x="205" y="592"/>
			<point x="139" y="653"/>
		</contour>
		<contour>
			<point x="402" y="540" type="curve"/>
			<point x="295" y="492" type="line"/>
			<point x="335" y="420"/>
			<point x="378" y="324"/>
			<point x="393" y="264" type="curve"/>
			<point x="509" y="319" type="line"/>
			<point x="491" y="379"/>
			<point x="444" y="471"/>
		</contour>
		<contour>
			<point x="22" y="418" type="curve"/>
			<point x="36" y="293" type="line"/>
			<point x="141" y="299"/>
			<point x="278" y="307"/>
			<point x="408" y="317" type="curve"/>
			<point x="409" y="436" type="line"/>
			<point x="269" y="429"/>
			<point x="123" y="422"/>
		</contour>
		<contour>
			<point x="425" y="266" type="curve"/>
			<point x="311" y="224" type="line"/>
			<point x="337" y="162"/>
			<point x="369" y="79"/>
			<point x="381" y="27" type="curve"/>
			<point x="501" y="75" type="line"/>
			<point x="486" y="127"/>
			<point x="454" y="205"/>
		</contour>
		<contour>
			<point x="190" y="234" type="curve"/>
			<point x="62" y="257" type="line"/>
			<point x="54" y="174"/>
			<point x="37" y="83"/>
			<point x="7" y="26" type="curve"/>
			<point x="39" y="14"/>
			<point x="97" y="-13"/>
			<point x="123" y="-31" type="curve"/>
			<point x="154" y="33"/>
			<point x="179" y="136"/>
		</contour>
	</outline>
</glyph>
<glyph name="uni83E9.HK2" format="2">
	<advance width="1000" height="1000"/>
	<note>
		cid34372
	</note>
	<outline>
		<contour>
			<point x="894" y="516" type="line"/>
			<point x="106" y="516" type="line"/>
			<point x="106" y="410" type="line"/>
			<point x="894" y="410" type="line"/>
		</contour>
		<contour>
			<point x="741" y="44" type="line"/>
			<point x="268" y="44" type="line"/>
			<point x="268" y="-66" type="line"/>
			<point x="741" y="-66" type="line"/>
		</contour>
		<contour>
			<point x="953" y="351" type="line"/>
			<point x="48" y="351" type="line"/>
			<point x="48" y="241" type="line"/>
			<point x="953" y="241" type="line"/>
		</contour>
		<contour>
			<point x="788" y="637" type="line"/>
			<point x="212" y="637" type="line"/>
			<point x="212" y="543" type="line"/>
			<point x="788" y="543" type="line"/>
		</contour>
		<contour>
			<point x="839" y="213" type="line"/>
			<point x="177" y="213" type="line"/>
			<point x="177" y="-95" type="line"/>
			<point x="314" y="-95" type="line"/>
			<point x="314" y="103" type="line"/>
			<point x="695" y="103" type="line"/>
			<point x="695" y="-95" type="line"/>
			<point x="839" y="-95" type="line"/>
		</contour>
		<contour>
			<point x="373" y="427" type="curve"/>
			<point x="239" y="407" type="line"/>
			<point x="256" y="381"/>
			<point x="269" y="351"/>
			<point x="273" y="328" type="curve"/>
			<point x="414" y="353" type="line"/>
			<point x="408" y="376"/>
			<point x="392" y="405"/>
		</contour>
		<contour>
			<point x="779" y="407" type="curve"/>
			<point x="635" y="426" type="line"/>
			<point x="624" y="401"/>
			<point x="609" y="372"/>
			<point x="595" y="353" type="curve"/>
			<point x="725" y="333" type="line"/>
			<point x="739" y="351"/>
			<point x="760" y="379"/>
		</contour>
		<contour>
			<point x="391" y="855" type="line"/>
			<point x="249" y="855" type="line"/>
			<point x="249" y="664" type="line"/>
			<point x="391" y="664" type="line"/>
		</contour>
		<contour>
			<point x="747" y="855" type="line"/>
			<point x="605" y="855" type="line"/>
			<point x="605" y="664" type="line"/>
			<point x="747" y="664" type="line"/>
		</contour>
		<contour>
			<point x="948" y="812" type="line"/>
			<point x="52" y="812" type="line"/>
			<point x="52" y="702" type="line"/>
			<point x="948" y="702" type="line"/>
		</contour>
	</outline>
</glyph>
<glyph name="uni8E2B.inherited" format="2">
	<advance width="1000" height="1000"/>
	<note>
		cid39354
	</note>
	<outline>
		<contour>
			<point x="181" y="595" type="line"/>
			<point x="181" y="700" type="line"/>
			<point x="267" y="700" type="line"/>
			<point x="267" y="595" type="line"/>
		</contour>
		<contour>
			<point x="388" y="820" type="line"/>
			<point x="60" y="820" type="line"/>
			<point x="60" y="475" type="line"/>
			<point x="388" y="475" type="line"/>
		</contour>
		<contour>
			<point x="311" y="524" type="line"/>
			<point x="191" y="524" type="line"/>
			<point x="191" y="69" type="line"/>
			<point x="311" y="69" type="line"/>
		</contour>
		<contour>
			<point x="167" y="417" type="line"/>
			<point x="52" y="417" type="line"/>
			<point x="52" y="43" type="line"/>
			<point x="167" y="43" type="line"/>
		</contour>
		<contour>
			<point x="11" y="67" type="curve"/>
			<point x="47" y="-69" type="line"/>
			<point x="155" y="-38"/>
			<point x="296" y="5"/>
			<point x="413" y="41" type="curve"/>
			<point x="392" y="163" type="line"/>
			<point x="266" y="129"/>
			<point x="119" y="92"/>
		</contour>
		<contour>
			<point x="392" y="386" type="line"/>
			<point x="259" y="386" type="line"/>
			<point x="259" y="261" type="line"/>
			<point x="392" y="261" type="line"/>
		</contour>
		<contour>
			<point x="953" y="631" type="line"/>
			<point x="403" y="631" type="line"/>
			<point x="403" y="498" type="line"/>
			<point x="953" y="498" type="line"/>
		</contour>
		<contour>
			<point x="976" y="62" type="line"/>
			<point x="363" y="62" type="line"/>
			<point x="363" y="-69" type="line"/>
			<point x="976" y="-69" type="line"/>
		</contour>
		<contour>
			<point x="658" y="562" type="line"/>
			<point x="532" y="562" type="line"/>
			<point x="532" y="-14" type="line"/>
			<point x="658" y="-14" type="line"/>
		</contour>
		<contour>
			<point x="811" y="562" type="line"/>
			<point x="685" y="562" type="line"/>
			<point x="685" y="-14" type="line"/>
			<point x="811" y="-14" type="line"/>
		</contour>
		<contour>
			<point x="561" y="848" type="curve"/>
			<point x="441" y="812" type="line"/>
			<point x="470" y="748"/>
			<point x="496" y="664"/>
			<point x="501" y="611" type="curve"/>
			<point x="630" y="652" type="line"/>
			<point x="622" y="706"/>
			<point x="593" y="787"/>
		</contour>
		<contour>
			<point x="492" y="450" type="curve"/>
			<point x="387" y="423" type="line"/>
			<point x="414" y="321"/>
			<point x="432" y="191"/>
			<point x="432" y="112" type="curve"/>
			<point x="546" y="144" type="line"/>
			<point x="545" y="223"/>
			<point x="523" y="350"/>
		</contour>
		<contour>
			<point x="922" y="815" type="curve"/>
			<point x="775" y="856" type="line"/>
			<point x="761" y="792"/>
			<point x="732" y="708"/>
			<point x="706" y="651" type="curve"/>
			<point x="819" y="613" type="line"/>
			<point x="849" y="664"/>
			<point x="886" y="741"/>
		</contour>
		<contour>
			<point x="970" y="427" type="curve"/>
			<point x="842" y="464" type="line"/>
			<point x="834" y="368"/>
			<point x="813" y="236"/>
			<point x="791" y="150" type="curve"/>
			<point x="879" y="118" type="line"/>
			<point x="908" y="196"/>
			<point x="940" y="323"/>
		</contour>
	</outline>
</glyph>
<glyph name="uni8E66.JP" format="2">
	<advance width="1000"/>
	<outline>
		<contour>
			<point x="513" y="386" type="curve"/>
			<point x="450" y="330" type="line"/>
			<point x="476" y="312"/>
			<point x="509" y="285"/>
			<point x="526" y="267" type="curve"/>
			<point x="591" y="329" type="line"/>
			<point x="573" y="346"/>
			<point x="539" y="371"/>
		</contour>
		<contour>
			<point x="510" y="240" type="curve"/>
			<point x="446" y="181" type="line"/>
			<point x="472" y="163"/>
			<point x="507" y="137"/>
			<point x="523" y="119" type="curve"/>
			<point x="589" y="185" type="line"/>
			<point x="571" y="201"/>
			<point x="536" y="225"/>
		</contour>
		<contour>
			<point x="800" y="387" type="curve"/>
			<point x="737" y="330" type="line"/>
			<point x="764" y="311"/>
			<point x="799" y="283"/>
			<point x="816" y="265" type="curve"/>
			<point x="881" y="327" type="line"/>
			<point x="863" y="345"/>
			<point x="827" y="370"/>
		</contour>
		<contour>
			<point x="800" y="240" type="curve"/>
			<point x="736" y="181" type="line"/>
			<point x="763" y="162"/>
			<point x="798" y="134"/>
			<point x="815" y="116" type="curve"/>
			<point x="882" y="180" type="line"/>
			<point x="864" y="198"/>
			<point x="828" y="223"/>
		</contour>
		<contour>
			<point x="733" y="856" type="line"/>
			<point x="599" y="856" type="line"/>
			<point x="599" y="635" type="line"/>
			<point x="733" y="635" type="line"/>
		</contour>
		<contour>
			<point x="511" y="801" type="line"/>
			<point x="383" y="801" type="line"/>
			<point x="383" y="564" type="line"/>
			<point x="958" y="564" type="line"/>
			<point x="958" y="801" type="line"/>
			<point x="824" y="801" type="line"/>
			<point x="824" y="685" type="line"/>
			<point x="511" y="685" type="line"/>
		</contour>
		<contour>
			<point x="493" y="273" type="curve" smooth="yes"/>
			<point x="493" y="527" type="line"/>
			<point x="384" y="527" type="line"/>
			<point x="384" y="274" type="line" smooth="yes"/>
			<point x="384" y="177"/>
			<point x="378" y="55"/>
			<point x="309" y="-31" type="curve"/>
			<point x="334" y="-43"/>
			<point x="381" y="-78"/>
			<point x="400" y="-98" type="curve"/>
			<point x="479" y="-1"/>
			<point x="493" y="156"/>
		</contour>
		<contour>
			<point x="600" y="527" type="line"/>
			<point x="424" y="527" type="line"/>
			<point x="424" y="417" type="line"/>
			<point x="600" y="417" type="line"/>
		</contour>
		<contour>
			<point x="648" y="23" type="curve" smooth="yes"/>
			<point x="648" y="527" type="line"/>
			<point x="535" y="527" type="line"/>
			<point x="535" y="26" type="line" smooth="yes"/>
			<point x="535" y="16"/>
			<point x="532" y="14"/>
			<point x="524" y="13" type="curve" smooth="yes"/>
			<point x="516" y="13"/>
			<point x="494" y="13"/>
			<point x="473" y="14" type="curve"/>
			<point x="488" y="-15"/>
			<point x="503" y="-64"/>
			<point x="507" y="-96" type="curve"/>
			<point x="552" y="-96"/>
			<point x="585" y="-93"/>
			<point x="613" y="-74" type="curve" smooth="yes"/>
			<point x="642" y="-55"/>
			<point x="648" y="-24"/>
		</contour>
		<contour>
			<point x="789" y="259" type="curve" smooth="yes"/>
			<point x="789" y="527" type="line"/>
			<point x="676" y="527" type="line"/>
			<point x="676" y="261" type="line" smooth="yes"/>
			<point x="676" y="167"/>
			<point x="672" y="51"/>
			<point x="618" y="-31" type="curve"/>
			<point x="644" y="-43"/>
			<point x="695" y="-77"/>
			<point x="715" y="-96" type="curve"/>
			<point x="778" y="-4"/>
			<point x="789" y="147"/>
		</contour>
		<contour>
			<point x="901" y="527" type="line"/>
			<point x="725" y="527" type="line"/>
			<point x="725" y="417" type="line"/>
			<point x="901" y="417" type="line"/>
		</contour>
		<contour>
			<point x="953" y="32" type="curve" smooth="yes"/>
			<point x="953" y="527" type="line"/>
			<point x="832" y="527" type="line"/>
			<point x="832" y="35" type="line" smooth="yes"/>
			<point x="832" y="25"/>
			<point x="829" y="22"/>
			<point x="820" y="22" type="curve" smooth="yes"/>
			<point x="812" y="22"/>
			<point x="788" y="22"/>
			<point x="767" y="23" type="curve"/>
			<point x="782" y="-9"/>
			<point x="797" y="-60"/>
			<point x="800" y="-94" type="curve"/>
			<point x="849" y="-94"/>
			<point x="885" y="-92"/>
			<point x="916" y="-72" type="curve" smooth="yes"/>
			<point x="946" y="-52"/>
			<point x="953" y="-19"/>
		</contour>
		<contour>
			<point x="172" y="595" type="line"/>
			<point x="172" y="698" type="line"/>
			<point x="239" y="698" type="line"/>
			<point x="239" y="595" type="line"/>
		</contour>
		<contour>
			<point x="354" y="820" type="line"/>
			<point x="64" y="820" type="line"/>
			<point x="64" y="474" type="line"/>
			<point x="354" y="474" type="line"/>
		</contour>
		<contour>
			<point x="290" y="524" type="line"/>
			<point x="180" y="524" type="line"/>
			<point x="180" y="69" type="line"/>
			<point x="290" y="69" type="line"/>
		</contour>
		<contour>
			<point x="158" y="416" type="line"/>
			<point x="56" y="416" type="line"/>
			<point x="56" y="42" type="line"/>
			<point x="158" y="42" type="line"/>
		</contour>
		<contour>
			<point x="20" y="88" type="curve"/>
			<point x="44" y="-43" type="line"/>
			<point x="141" y="-18"/>
			<point x="264" y="12"/>
			<point x="378" y="42" type="curve"/>
			<point x="363" y="161" type="line"/>
			<point x="239" y="133"/>
			<point x="108" y="104"/>
		</contour>
		<contour>
			<point x="358" y="372" type="line"/>
			<point x="240" y="372" type="line"/>
			<point x="240" y="250" type="line"/>
			<point x="358" y="250" type="line"/>
		</contour>
	</outline>
</glyph>
<glyph name="uni914D.HK2" format="2">
	<advance width="1000" height="1000"/>
	<note>
		cid62943
	</note>
	<outline>
		<contour>
			<point x="861" y="467" type="line"/>
			<point x="600" y="467" type="line"/>
			<point x="600" y="335" type="line"/>
			<point x="861" y="335" type="line"/>
		</contour>
		<contour>
			<point x="934" y="801" type="line"/>
			<point x="600" y="801" type="line"/>
			<point x="600" y="668" type="line"/>
			<point x="793" y="668" type="line"/>
			<point x="793" y="295" type="line"/>
			<point x="934" y="295" type="line"/>
		</contour>
		<contour>
			<point x="673" y="104" type="curve" smooth="yes"/>
			<point x="673" y="801" type="line"/>
			<point x="532" y="801" type="line"/>
			<point x="532" y="104" type="line" smooth="yes"/>
			<point x="532" y="-37"/>
			<point x="565" y="-80"/>
			<point x="690" y="-80" type="curve" smooth="yes"/>
			<point x="715" y="-80"/>
			<point x="795" y="-80"/>
			<point x="821" y="-80" type="curve" smooth="yes"/>
			<point x="931" y="-80"/>
			<point x="967" y="-24"/>
			<point x="981" y="151" type="curve"/>
			<point x="943" y="160"/>
			<point x="883" y="184"/>
			<point x="853" y="208" type="curve"/>
			<point x="847" y="78"/>
			<point x="841" y="52"/>
			<point x="807" y="52" type="curve" smooth="yes"/>
			<point x="791" y="52"/>
			<point x="727" y="52"/>
			<point x="712" y="52" type="curve" smooth="yes"/>
			<point x="678" y="52"/>
			<point x="673" y="57"/>
		</contour>
		<contour>
			<point x="493" y="614" type="line"/>
			<point x="52" y="614" type="line"/>
			<point x="52" y="-94" type="line"/>
			<point x="164" y="-94" type="line"/>
			<point x="164" y="494" type="line"/>
			<point x="376" y="494" type="line"/>
			<point x="376" y="-80" type="line"/>
			<point x="493" y="-80" type="line"/>
		</contour>
		<contour>
			<point x="446" y="228" type="line"/>
			<point x="108" y="228" type="line"/>
			<point x="108" y="119" type="line"/>
			<point x="446" y="119" type="line"/>
		</contour>
		<contour>
			<point x="446" y="80" type="line"/>
			<point x="108" y="80" type="line"/>
			<point x="108" y="-33" type="line"/>
			<point x="446" y="-33" type="line"/>
		</contour>
		<contour>
			<point x="489" y="809" type="line"/>
			<point x="43" y="809" type="line"/>
			<point x="43" y="689" type="line"/>
			<point x="489" y="689" type="line"/>
		</contour>
		<contour>
			<point x="259" y="780" type="line"/>
			<point x="164" y="780" type="line"/>
			<point x="164" y="523" type="line"/>
			<point x="259" y="523" type="line"/>
		</contour>
		<contour>
			<point x="380" y="780" type="line"/>
			<point x="284" y="780" type="line"/>
			<point x="284" y="523" type="line"/>
			<point x="380" y="523" type="line"/>
		</contour>
		<contour>
			<point x="257" y="429" type="curve" smooth="yes"/>
			<point x="257" y="524" type="line"/>
			<point x="188" y="524" type="line"/>
			<point x="188" y="431" type="line" smooth="yes"/>
			<point x="188" y="392"/>
			<point x="185" y="350"/>
			<point x="151" y="315" type="curve"/>
			<point x="166" y="307"/>
			<point x="196" y="283"/>
			<point x="208" y="270" type="curve"/>
			<point x="249" y="312"/>
			<point x="257" y="377"/>
		</contour>
		<contour>
			<point x="353" y="393" type="curve" smooth="yes"/>
			<point x="353" y="524" type="line"/>
			<point x="284" y="524" type="line"/>
			<point x="284" y="392" type="line" smooth="yes"/>
			<point x="284" y="322"/>
			<point x="298" y="304"/>
			<point x="349" y="304" type="curve" smooth="yes"/>
			<point x="359" y="304"/>
			<point x="369" y="304"/>
			<point x="379" y="304" type="curve" smooth="yes"/>
			<point x="415" y="304"/>
			<point x="435" y="318"/>
			<point x="445" y="354" type="curve"/>
			<point x="423" y="359"/>
			<point x="394" y="370"/>
			<point x="381" y="382" type="curve"/>
			<point x="379" y="379"/>
			<point x="377" y="378"/>
			<point x="368" y="378" type="curve" smooth="yes"/>
			<point x="365" y="378"/>
			<point x="362" y="378"/>
			<point x="360" y="378" type="curve" smooth="yes"/>
			<point x="354" y="378"/>
			<point x="353" y="379"/>
		</contour>
	</outline>
</glyph>
<glyph name="uni9185.HK" format="2">
	<advance width="1000" height="1000"/>
	<note>
		cid41053
	</note>
	<outline>
		<contour>
			<point x="891" y="839" type="line"/>
			<point x="561" y="839" type="line"/>
			<point x="561" y="727" type="line"/>
			<point x="891" y="727" type="line"/>
		</contour>
		<contour>
			<point x="939" y="557" type="curve"/>
			<point x="808" y="586" type="line"/>
			<point x="798" y="544"/>
			<point x="780" y="494"/>
			<point x="761" y="456" type="curve"/>
			<point x="874" y="428" type="line"/>
			<point x="892" y="460"/>
			<point x="917" y="510"/>
		</contour>
		<contour>
			<point x="646" y="585" type="curve"/>
			<point x="531" y="558" type="line"/>
			<point x="549" y="514"/>
			<point x="563" y="463"/>
			<point x="566" y="427" type="curve"/>
			<point x="687" y="456" type="line"/>
			<point x="682" y="490"/>
			<point x="666" y="540"/>
		</contour>
		<contour>
			<point x="943" y="286" type="line"/>
			<point x="516" y="286" type="line"/>
			<point x="516" y="-94" type="line"/>
			<point x="642" y="-94" type="line"/>
			<point x="642" y="166" type="line"/>
			<point x="810" y="166" type="line"/>
			<point x="810" y="-94" type="line"/>
			<point x="943" y="-94" type="line"/>
		</contour>
		<contour>
			<point x="875" y="66" type="line"/>
			<point x="568" y="66" type="line"/>
			<point x="568" y="-54" type="line"/>
			<point x="875" y="-54" type="line"/>
		</contour>
		<contour>
			<point x="978" y="446" type="line"/>
			<point x="482" y="446" type="line"/>
			<point x="482" y="326" type="line"/>
			<point x="978" y="326" type="line"/>
		</contour>
		<contour>
			<point x="960" y="687" type="line"/>
			<point x="491" y="687" type="line"/>
			<point x="491" y="567" type="line"/>
			<point x="960" y="567" type="line"/>
		</contour>
		<contour>
			<point x="461" y="619" type="line"/>
			<point x="51" y="619" type="line"/>
			<point x="51" y="-93" type="line"/>
			<point x="155" y="-93" type="line"/>
			<point x="155" y="500" type="line"/>
			<point x="352" y="500" type="line"/>
			<point x="352" y="-79" type="line"/>
			<point x="461" y="-79" type="line"/>
		</contour>
		<contour>
			<point x="425" y="227" type="line"/>
			<point x="100" y="227" type="line"/>
			<point x="100" y="119" type="line"/>
			<point x="425" y="119" type="line"/>
		</contour>
		<contour>
			<point x="425" y="80" type="line"/>
			<point x="100" y="80" type="line"/>
			<point x="100" y="-31" type="line"/>
			<point x="425" y="-31" type="line"/>
		</contour>
		<contour>
			<point x="464" y="819" type="line"/>
			<point x="40" y="819" type="line"/>
			<point x="40" y="700" type="line"/>
			<point x="464" y="700" type="line"/>
		</contour>
		<contour>
			<point x="241" y="780" type="line"/>
			<point x="149" y="780" type="line"/>
			<point x="149" y="523" type="line"/>
			<point x="241" y="523" type="line"/>
		</contour>
		<contour>
			<point x="365" y="780" type="line"/>
			<point x="271" y="780" type="line"/>
			<point x="271" y="523" type="line"/>
			<point x="365" y="523" type="line"/>
		</contour>
		<contour>
			<point x="245" y="427" type="curve" smooth="yes"/>
			<point x="245" y="524" type="line"/>
			<point x="182" y="524" type="line"/>
			<point x="182" y="428" type="line" smooth="yes"/>
			<point x="182" y="388"/>
			<point x="180" y="341"/>
			<point x="149" y="302" type="curve"/>
			<point x="163" y="295"/>
			<point x="189" y="273"/>
			<point x="199" y="261" type="curve"/>
			<point x="237" y="307"/>
			<point x="245" y="375"/>
		</contour>
		<contour>
			<point x="329" y="380" type="curve" smooth="yes"/>
			<point x="329" y="524" type="line"/>
			<point x="266" y="524" type="line"/>
			<point x="266" y="379" type="line" smooth="yes"/>
			<point x="266" y="315"/>
			<point x="279" y="299"/>
			<point x="325" y="299" type="curve" smooth="yes"/>
			<point x="334" y="299"/>
			<point x="342" y="299"/>
			<point x="351" y="299" type="curve" smooth="yes"/>
			<point x="384" y="299"/>
			<point x="403" y="312"/>
			<point x="411" y="344" type="curve"/>
			<point x="391" y="349"/>
			<point x="365" y="358"/>
			<point x="353" y="369" type="curve"/>
			<point x="351" y="367"/>
			<point x="349" y="366"/>
			<point x="340" y="366" type="curve" smooth="yes"/>
			<point x="338" y="366"/>
			<point x="336" y="366"/>
			<point x="334" y="366" type="curve" smooth="yes"/>
			<point x="329" y="366"/>
			<point x="329" y="367"/>
		</contour>
	</outline>
</glyph>
<glyph name="uni979B.HK" format="2">
	<advance width="1000" height="1000"/>
	<note>
		cid43775
	</note>
	<outline>
		<contour>
			<point x="435" y="782" type="line"/>
			<point x="25" y="782" type="line"/>
			<point x="25" y="665" type="line"/>
			<point x="435" y="665" type="line"/>
		</contour>
		<contour>
			<point x="435" y="175" type="line"/>
			<point x="25" y="175" type="line"/>
			<point x="25" y="54" type="line"/>
			<point x="435" y="54" type="line"/>
		</contour>
		<contour>
			<point x="292" y="580" type="line"/>
			<point x="174" y="580" type="line"/>
			<point x="174" y="458" type="line"/>
			<point x="292" y="458" type="line"/>
		</contour>
		<contour>
			<point x="280" y="443" type="line"/>
			<point x="186" y="443" type="line"/>
			<point x="186" y="257" type="line"/>
			<point x="175" y="257" type="line"/>
			<point x="175" y="-96" type="line"/>
			<point x="291" y="-96" type="line"/>
			<point x="291" y="257" type="line"/>
			<point x="280" y="257" type="line"/>
		</contour>
		<contour>
			<point x="196" y="855" type="line"/>
			<point x="88" y="855" type="line"/>
			<point x="88" y="522" type="line"/>
			<point x="383" y="522" type="line"/>
			<point x="383" y="855" type="line"/>
			<point x="270" y="855" type="line"/>
			<point x="270" y="630" type="line"/>
			<point x="196" y="630" type="line"/>
		</contour>
		<contour>
			<point x="152" y="320" type="line"/>
			<point x="152" y="384" type="line"/>
			<point x="316" y="384" type="line"/>
			<point x="316" y="320" type="line"/>
		</contour>
		<contour>
			<point x="423" y="489" type="line"/>
			<point x="48" y="489" type="line"/>
			<point x="48" y="214" type="line"/>
			<point x="423" y="214" type="line"/>
		</contour>
		<contour>
			<point x="881" y="840" type="line"/>
			<point x="531" y="840" type="line"/>
			<point x="531" y="728" type="line"/>
			<point x="881" y="728" type="line"/>
		</contour>
		<contour>
			<point x="912" y="566" type="curve"/>
			<point x="779" y="596" type="line"/>
			<point x="770" y="546"/>
			<point x="754" y="491"/>
			<point x="737" y="452" type="curve"/>
			<point x="850" y="424" type="line"/>
			<point x="869" y="460"/>
			<point x="893" y="515"/>
		</contour>
		<contour>
			<point x="623" y="592" type="curve"/>
			<point x="506" y="567" type="line"/>
			<point x="523" y="518"/>
			<point x="536" y="463"/>
			<point x="539" y="423" type="curve"/>
			<point x="662" y="451" type="line"/>
			<point x="657" y="492"/>
			<point x="642" y="546"/>
		</contour>
		<contour>
			<point x="934" y="288" type="line"/>
			<point x="487" y="288" type="line"/>
			<point x="487" y="-94" type="line"/>
			<point x="621" y="-94" type="line"/>
			<point x="621" y="168" type="line"/>
			<point x="793" y="168" type="line"/>
			<point x="793" y="-90" type="line"/>
			<point x="934" y="-90" type="line"/>
		</contour>
		<contour>
			<point x="865" y="64" type="line"/>
			<point x="545" y="64" type="line"/>
			<point x="545" y="-56" type="line"/>
			<point x="865" y="-56" type="line"/>
		</contour>
		<contour>
			<point x="975" y="446" type="line"/>
			<point x="439" y="446" type="line"/>
			<point x="439" y="326" type="line"/>
			<point x="975" y="326" type="line"/>
		</contour>
		<contour>
			<point x="954" y="690" type="line"/>
			<point x="458" y="690" type="line"/>
			<point x="458" y="575" type="line"/>
			<point x="954" y="575" type="line"/>
		</contour>
	</outline>
</glyph>
